<mxfile host="Electron" modified="2023-12-16T22:55:33.934Z" agent="Mozilla/5.0 (Windows NT 10.0; Win64; x64) AppleWebKit/537.36 (KHTML, like Gecko) draw.io/22.1.2 Chrome/114.0.5735.289 Electron/25.9.4 Safari/537.36" etag="pAfstbwPwsjb_oJ6y6jB" version="22.1.2" type="device" pages="5">
  <diagram id="C5RBs43oDa-KdzZeNtuy" name="sem_arrumacao">
    <mxGraphModel dx="2445" dy="614" grid="1" gridSize="10" guides="1" tooltips="1" connect="1" arrows="1" fold="1" page="1" pageScale="1" pageWidth="1169" pageHeight="1654" math="0" shadow="0">
      <root>
        <mxCell id="WIyWlLk6GJQsqaUBKTNV-0" />
        <mxCell id="WIyWlLk6GJQsqaUBKTNV-1" parent="WIyWlLk6GJQsqaUBKTNV-0" />
        <mxCell id="4UCPlDY1eElr0SMKjK0f-49" value="" style="rounded=1;whiteSpace=wrap;html=1;" parent="WIyWlLk6GJQsqaUBKTNV-1" vertex="1">
          <mxGeometry x="310" y="500" width="550" height="400" as="geometry" />
        </mxCell>
        <mxCell id="SQiC8q7nYtbhmfbLze2i-2" value="" style="rounded=1;whiteSpace=wrap;html=1;" parent="WIyWlLk6GJQsqaUBKTNV-1" vertex="1">
          <mxGeometry x="310" y="55" width="560" height="385" as="geometry" />
        </mxCell>
        <mxCell id="cU9DbLTpWD-7K6Nm_5fW-0" value="Sindico" style="shape=umlActor;verticalLabelPosition=bottom;verticalAlign=top;html=1;" parent="WIyWlLk6GJQsqaUBKTNV-1" vertex="1">
          <mxGeometry x="28.25" y="735" width="30" height="60" as="geometry" />
        </mxCell>
        <mxCell id="cU9DbLTpWD-7K6Nm_5fW-1" value="Secretaria" style="shape=umlActor;verticalLabelPosition=bottom;verticalAlign=top;html=1;" parent="WIyWlLk6GJQsqaUBKTNV-1" vertex="1">
          <mxGeometry x="28.25" y="187.75" width="30" height="60" as="geometry" />
        </mxCell>
        <mxCell id="cU9DbLTpWD-7K6Nm_5fW-3" value="UCS01 - Manter informações de pagamento" style="ellipse;whiteSpace=wrap;html=1;" parent="WIyWlLk6GJQsqaUBKTNV-1" vertex="1">
          <mxGeometry x="350" y="90" width="140" height="70" as="geometry" />
        </mxCell>
        <mxCell id="SQiC8q7nYtbhmfbLze2i-3" value="&lt;b&gt;&lt;font style=&quot;font-size: 16px;&quot;&gt;CONTAS A PAGAR E A RECEBER&lt;/font&gt;&lt;/b&gt;" style="text;html=1;strokeColor=none;fillColor=none;align=center;verticalAlign=middle;whiteSpace=wrap;rounded=0;" parent="WIyWlLk6GJQsqaUBKTNV-1" vertex="1">
          <mxGeometry x="390" y="25" width="360" height="30" as="geometry" />
        </mxCell>
        <mxCell id="SQiC8q7nYtbhmfbLze2i-7" value="" style="endArrow=none;html=1;rounded=0;" parent="WIyWlLk6GJQsqaUBKTNV-1" target="cU9DbLTpWD-7K6Nm_5fW-1" edge="1">
          <mxGeometry width="50" height="50" relative="1" as="geometry">
            <mxPoint x="43" y="430" as="sourcePoint" />
            <mxPoint x="45" y="280" as="targetPoint" />
          </mxGeometry>
        </mxCell>
        <mxCell id="4UCPlDY1eElr0SMKjK0f-6" value="UCS02 - Armazenar nota fiscal" style="ellipse;whiteSpace=wrap;html=1;" parent="WIyWlLk6GJQsqaUBKTNV-1" vertex="1">
          <mxGeometry x="350" y="210" width="140" height="70" as="geometry" />
        </mxCell>
        <mxCell id="4UCPlDY1eElr0SMKjK0f-11" value="Administradora" style="shape=umlActor;verticalLabelPosition=bottom;verticalAlign=top;html=1;" parent="WIyWlLk6GJQsqaUBKTNV-1" vertex="1">
          <mxGeometry x="24.37" y="915" width="30" height="60" as="geometry" />
        </mxCell>
        <mxCell id="4UCPlDY1eElr0SMKjK0f-12" value="Morador" style="shape=umlActor;verticalLabelPosition=bottom;verticalAlign=top;html=1;" parent="WIyWlLk6GJQsqaUBKTNV-1" vertex="1">
          <mxGeometry x="1040" y="172.75" width="30" height="60" as="geometry" />
        </mxCell>
        <mxCell id="4UCPlDY1eElr0SMKjK0f-15" value="Relógio sistema" style="shape=umlActor;verticalLabelPosition=bottom;verticalAlign=top;html=1;" parent="WIyWlLk6GJQsqaUBKTNV-1" vertex="1">
          <mxGeometry x="1047" y="360" width="30" height="60" as="geometry" />
        </mxCell>
        <mxCell id="4UCPlDY1eElr0SMKjK0f-23" value="Sistema do banco" style="shape=umlActor;verticalLabelPosition=bottom;verticalAlign=top;html=1;" parent="WIyWlLk6GJQsqaUBKTNV-1" vertex="1">
          <mxGeometry x="1050" y="530" width="30" height="60" as="geometry" />
        </mxCell>
        <mxCell id="4UCPlDY1eElr0SMKjK0f-24" value="UCS04 - Gerar informações do boleto" style="ellipse;whiteSpace=wrap;html=1;" parent="WIyWlLk6GJQsqaUBKTNV-1" vertex="1">
          <mxGeometry x="570" y="350" width="140" height="70" as="geometry" />
        </mxCell>
        <mxCell id="4UCPlDY1eElr0SMKjK0f-26" value="" style="shape=ellipse;container=1;horizontal=1;horizontalStack=0;resizeParent=1;resizeParentMax=0;resizeLast=0;html=1;dashed=0;collapsible=0;" parent="WIyWlLk6GJQsqaUBKTNV-1" vertex="1">
          <mxGeometry x="330" y="310" width="180" height="120" as="geometry" />
        </mxCell>
        <mxCell id="4UCPlDY1eElr0SMKjK0f-27" value="UCS03 - Gerar &lt;br&gt;faturas e boletos" style="html=1;strokeColor=none;fillColor=none;align=center;verticalAlign=middle;rotatable=0;whiteSpace=wrap;" parent="4UCPlDY1eElr0SMKjK0f-26" vertex="1">
          <mxGeometry width="180" height="30" as="geometry" />
        </mxCell>
        <mxCell id="4UCPlDY1eElr0SMKjK0f-28" value="" style="line;strokeWidth=1;fillColor=none;rotatable=0;labelPosition=right;points=[];portConstraint=eastwest;dashed=0;resizeWidth=1;" parent="4UCPlDY1eElr0SMKjK0f-26" vertex="1">
          <mxGeometry x="9" y="30" width="162" height="10" as="geometry" />
        </mxCell>
        <mxCell id="4UCPlDY1eElr0SMKjK0f-29" value="extension points" style="text;html=1;align=center;verticalAlign=middle;rotatable=0;fillColor=none;strokeColor=none;whiteSpace=wrap;" parent="4UCPlDY1eElr0SMKjK0f-26" vertex="1">
          <mxGeometry y="40" width="180" height="30" as="geometry" />
        </mxCell>
        <mxCell id="4UCPlDY1eElr0SMKjK0f-30" value="UCS04 - Gerar informações dos boletos" style="text;html=1;align=left;verticalAlign=middle;rotatable=0;spacingLeft=25;fillColor=none;strokeColor=none;whiteSpace=wrap;" parent="4UCPlDY1eElr0SMKjK0f-26" vertex="1">
          <mxGeometry y="70" width="180" height="30" as="geometry" />
        </mxCell>
        <mxCell id="4UCPlDY1eElr0SMKjK0f-32" value="" style="endArrow=none;html=1;rounded=0;entryX=0.533;entryY=0.4;entryDx=0;entryDy=0;entryPerimeter=0;" parent="WIyWlLk6GJQsqaUBKTNV-1" source="4UCPlDY1eElr0SMKjK0f-24" target="4UCPlDY1eElr0SMKjK0f-23" edge="1">
          <mxGeometry width="50" height="50" relative="1" as="geometry">
            <mxPoint x="830" y="555" as="sourcePoint" />
            <mxPoint x="1125" y="310" as="targetPoint" />
          </mxGeometry>
        </mxCell>
        <mxCell id="4UCPlDY1eElr0SMKjK0f-33" value="&amp;lt;&amp;lt;extend&amp;gt;&amp;gt;" style="html=1;verticalAlign=bottom;labelBackgroundColor=none;endArrow=open;endFill=0;dashed=1;rounded=0;entryX=1;entryY=0.75;entryDx=0;entryDy=0;exitX=0;exitY=0.5;exitDx=0;exitDy=0;" parent="WIyWlLk6GJQsqaUBKTNV-1" source="4UCPlDY1eElr0SMKjK0f-24" target="4UCPlDY1eElr0SMKjK0f-29" edge="1">
          <mxGeometry width="160" relative="1" as="geometry">
            <mxPoint x="570" y="520" as="sourcePoint" />
            <mxPoint x="730" y="520" as="targetPoint" />
          </mxGeometry>
        </mxCell>
        <mxCell id="4UCPlDY1eElr0SMKjK0f-35" value="UCS05 - Emitir notificações de boletos vencidos" style="ellipse;whiteSpace=wrap;html=1;" parent="WIyWlLk6GJQsqaUBKTNV-1" vertex="1">
          <mxGeometry x="570" y="202.5" width="140" height="70" as="geometry" />
        </mxCell>
        <mxCell id="4UCPlDY1eElr0SMKjK0f-36" value="" style="endArrow=none;html=1;rounded=0;" parent="WIyWlLk6GJQsqaUBKTNV-1" source="4UCPlDY1eElr0SMKjK0f-35" target="4UCPlDY1eElr0SMKjK0f-15" edge="1">
          <mxGeometry width="50" height="50" relative="1" as="geometry">
            <mxPoint x="699" y="370" as="sourcePoint" />
            <mxPoint x="1196" y="114" as="targetPoint" />
          </mxGeometry>
        </mxCell>
        <mxCell id="4UCPlDY1eElr0SMKjK0f-38" value="" style="endArrow=none;html=1;rounded=0;exitX=0.333;exitY=0.333;exitDx=0;exitDy=0;exitPerimeter=0;" parent="WIyWlLk6GJQsqaUBKTNV-1" source="cU9DbLTpWD-7K6Nm_5fW-1" target="cU9DbLTpWD-7K6Nm_5fW-3" edge="1">
          <mxGeometry width="50" height="50" relative="1" as="geometry">
            <mxPoint x="80" y="365" as="sourcePoint" />
            <mxPoint x="375" y="120" as="targetPoint" />
          </mxGeometry>
        </mxCell>
        <mxCell id="4UCPlDY1eElr0SMKjK0f-39" value="UCS06 - Gerar extrato financeiro" style="ellipse;whiteSpace=wrap;html=1;" parent="WIyWlLk6GJQsqaUBKTNV-1" vertex="1">
          <mxGeometry x="570" y="95" width="140" height="70" as="geometry" />
        </mxCell>
        <mxCell id="4UCPlDY1eElr0SMKjK0f-41" value="" style="endArrow=none;html=1;rounded=0;entryX=0;entryY=0.5;entryDx=0;entryDy=0;" parent="WIyWlLk6GJQsqaUBKTNV-1" source="cU9DbLTpWD-7K6Nm_5fW-1" target="4UCPlDY1eElr0SMKjK0f-6" edge="1">
          <mxGeometry width="50" height="50" relative="1" as="geometry">
            <mxPoint x="50" y="120" as="sourcePoint" />
            <mxPoint x="360" y="134" as="targetPoint" />
          </mxGeometry>
        </mxCell>
        <mxCell id="4UCPlDY1eElr0SMKjK0f-43" value="" style="endArrow=none;html=1;rounded=0;exitX=0.5;exitY=0.5;exitDx=0;exitDy=0;exitPerimeter=0;" parent="WIyWlLk6GJQsqaUBKTNV-1" source="4UCPlDY1eElr0SMKjK0f-12" target="4UCPlDY1eElr0SMKjK0f-39" edge="1">
          <mxGeometry width="50" height="50" relative="1" as="geometry">
            <mxPoint x="65" y="620" as="sourcePoint" />
            <mxPoint x="360" y="375" as="targetPoint" />
          </mxGeometry>
        </mxCell>
        <mxCell id="4UCPlDY1eElr0SMKjK0f-45" value="UCS07 - Gerar 2ª via de boleto" style="ellipse;whiteSpace=wrap;html=1;" parent="WIyWlLk6GJQsqaUBKTNV-1" vertex="1">
          <mxGeometry x="720" y="171.5" width="140" height="70" as="geometry" />
        </mxCell>
        <mxCell id="4UCPlDY1eElr0SMKjK0f-47" value="" style="endArrow=none;html=1;rounded=0;entryX=0.1;entryY=0.838;entryDx=0;entryDy=0;entryPerimeter=0;" parent="WIyWlLk6GJQsqaUBKTNV-1" source="4UCPlDY1eElr0SMKjK0f-45" target="4UCPlDY1eElr0SMKjK0f-12" edge="1">
          <mxGeometry width="50" height="50" relative="1" as="geometry">
            <mxPoint x="719" y="400" as="sourcePoint" />
            <mxPoint x="1211" y="434" as="targetPoint" />
          </mxGeometry>
        </mxCell>
        <mxCell id="4UCPlDY1eElr0SMKjK0f-50" value="&lt;b&gt;&lt;font style=&quot;font-size: 16px;&quot;&gt;CONTRATOS DE RECEITA / DESPESA E FORNECEDORES&lt;/font&gt;&lt;/b&gt;" style="text;html=1;strokeColor=none;fillColor=none;align=center;verticalAlign=middle;whiteSpace=wrap;rounded=0;" parent="WIyWlLk6GJQsqaUBKTNV-1" vertex="1">
          <mxGeometry x="322" y="470" width="510" height="30" as="geometry" />
        </mxCell>
        <mxCell id="4UCPlDY1eElr0SMKjK0f-51" value="UCS08 - Autenticar usuário" style="ellipse;whiteSpace=wrap;html=1;" parent="WIyWlLk6GJQsqaUBKTNV-1" vertex="1">
          <mxGeometry x="162" y="270" width="140" height="70" as="geometry" />
        </mxCell>
        <mxCell id="4UCPlDY1eElr0SMKjK0f-53" value="" style="endArrow=none;html=1;rounded=0;exitX=0.667;exitY=0.65;exitDx=0;exitDy=0;exitPerimeter=0;entryX=0.214;entryY=0.129;entryDx=0;entryDy=0;entryPerimeter=0;" parent="WIyWlLk6GJQsqaUBKTNV-1" source="cU9DbLTpWD-7K6Nm_5fW-1" target="4UCPlDY1eElr0SMKjK0f-51" edge="1">
          <mxGeometry width="50" height="50" relative="1" as="geometry">
            <mxPoint x="65" y="620" as="sourcePoint" />
            <mxPoint x="390" y="581" as="targetPoint" />
          </mxGeometry>
        </mxCell>
        <mxCell id="4UCPlDY1eElr0SMKjK0f-54" value="UCS09 - cadastrar usuário" style="ellipse;whiteSpace=wrap;html=1;" parent="WIyWlLk6GJQsqaUBKTNV-1" vertex="1">
          <mxGeometry x="-115.63" y="800" width="140" height="70" as="geometry" />
        </mxCell>
        <mxCell id="4UCPlDY1eElr0SMKjK0f-56" value="" style="endArrow=none;html=1;rounded=0;exitX=0.079;exitY=0.243;exitDx=0;exitDy=0;exitPerimeter=0;" parent="WIyWlLk6GJQsqaUBKTNV-1" source="4UCPlDY1eElr0SMKjK0f-54" target="cU9DbLTpWD-7K6Nm_5fW-0" edge="1">
          <mxGeometry width="50" height="50" relative="1" as="geometry">
            <mxPoint x="223" y="724" as="sourcePoint" />
            <mxPoint x="390" y="450" as="targetPoint" />
          </mxGeometry>
        </mxCell>
        <mxCell id="4UCPlDY1eElr0SMKjK0f-57" value="" style="endArrow=none;html=1;rounded=0;exitX=0;exitY=0.5;exitDx=0;exitDy=0;entryX=0.492;entryY=0.617;entryDx=0;entryDy=0;entryPerimeter=0;" parent="WIyWlLk6GJQsqaUBKTNV-1" source="4UCPlDY1eElr0SMKjK0f-54" target="4UCPlDY1eElr0SMKjK0f-11" edge="1">
          <mxGeometry width="50" height="50" relative="1" as="geometry">
            <mxPoint x="363" y="872" as="sourcePoint" />
            <mxPoint x="310" y="585" as="targetPoint" />
          </mxGeometry>
        </mxCell>
        <mxCell id="4UCPlDY1eElr0SMKjK0f-59" value="UCS10 - Manter informações do apartamento" style="ellipse;whiteSpace=wrap;html=1;" parent="WIyWlLk6GJQsqaUBKTNV-1" vertex="1">
          <mxGeometry x="320" y="540" width="140" height="70" as="geometry" />
        </mxCell>
        <mxCell id="4UCPlDY1eElr0SMKjK0f-63" value="" style="endArrow=none;html=1;rounded=0;exitX=0.625;exitY=0.671;exitDx=0;exitDy=0;exitPerimeter=0;" parent="WIyWlLk6GJQsqaUBKTNV-1" source="cU9DbLTpWD-7K6Nm_5fW-1" target="4UCPlDY1eElr0SMKjK0f-59" edge="1">
          <mxGeometry width="50" height="50" relative="1" as="geometry">
            <mxPoint x="58" y="237" as="sourcePoint" />
            <mxPoint x="202" y="289" as="targetPoint" />
          </mxGeometry>
        </mxCell>
        <mxCell id="4UCPlDY1eElr0SMKjK0f-65" value="UCS11 - Manter contratos de despesas" style="ellipse;whiteSpace=wrap;html=1;" parent="WIyWlLk6GJQsqaUBKTNV-1" vertex="1">
          <mxGeometry x="320" y="630" width="140" height="70" as="geometry" />
        </mxCell>
        <mxCell id="4UCPlDY1eElr0SMKjK0f-67" value="UCS12 - Manter contratos de receita" style="ellipse;whiteSpace=wrap;html=1;" parent="WIyWlLk6GJQsqaUBKTNV-1" vertex="1">
          <mxGeometry x="317" y="720" width="140" height="70" as="geometry" />
        </mxCell>
        <mxCell id="4UCPlDY1eElr0SMKjK0f-68" value="" style="endArrow=none;html=1;rounded=0;exitX=0.625;exitY=0.671;exitDx=0;exitDy=0;exitPerimeter=0;entryX=0;entryY=0.5;entryDx=0;entryDy=0;" parent="WIyWlLk6GJQsqaUBKTNV-1" target="4UCPlDY1eElr0SMKjK0f-65" edge="1">
          <mxGeometry width="50" height="50" relative="1" as="geometry">
            <mxPoint x="57" y="238" as="sourcePoint" />
            <mxPoint x="369" y="554" as="targetPoint" />
          </mxGeometry>
        </mxCell>
        <mxCell id="4UCPlDY1eElr0SMKjK0f-69" value="" style="endArrow=none;html=1;rounded=0;entryX=0;entryY=0.5;entryDx=0;entryDy=0;" parent="WIyWlLk6GJQsqaUBKTNV-1" target="4UCPlDY1eElr0SMKjK0f-67" edge="1">
          <mxGeometry width="50" height="50" relative="1" as="geometry">
            <mxPoint x="60" y="240" as="sourcePoint" />
            <mxPoint x="330" y="675" as="targetPoint" />
          </mxGeometry>
        </mxCell>
        <mxCell id="4UCPlDY1eElr0SMKjK0f-71" value="UCS21 - Emitir aviso de término de contrato" style="ellipse;whiteSpace=wrap;html=1;" parent="WIyWlLk6GJQsqaUBKTNV-1" vertex="1">
          <mxGeometry x="687" y="530" width="140" height="70" as="geometry" />
        </mxCell>
        <mxCell id="4UCPlDY1eElr0SMKjK0f-72" value="" style="endArrow=none;html=1;rounded=0;entryX=0.5;entryY=0.5;entryDx=0;entryDy=0;entryPerimeter=0;" parent="WIyWlLk6GJQsqaUBKTNV-1" source="4UCPlDY1eElr0SMKjK0f-71" target="4UCPlDY1eElr0SMKjK0f-15" edge="1">
          <mxGeometry width="50" height="50" relative="1" as="geometry">
            <mxPoint x="702" y="398" as="sourcePoint" />
            <mxPoint x="1076" y="564" as="targetPoint" />
          </mxGeometry>
        </mxCell>
        <mxCell id="4UCPlDY1eElr0SMKjK0f-74" value="UCS13 - Armazenar artefatos contratuais&amp;nbsp;" style="ellipse;whiteSpace=wrap;html=1;" parent="WIyWlLk6GJQsqaUBKTNV-1" vertex="1">
          <mxGeometry x="317" y="810" width="140" height="70" as="geometry" />
        </mxCell>
        <mxCell id="4UCPlDY1eElr0SMKjK0f-77" value="" style="endArrow=none;html=1;rounded=0;entryX=0;entryY=0.614;entryDx=0;entryDy=0;entryPerimeter=0;" parent="WIyWlLk6GJQsqaUBKTNV-1" target="4UCPlDY1eElr0SMKjK0f-74" edge="1">
          <mxGeometry width="50" height="50" relative="1" as="geometry">
            <mxPoint x="60" y="240" as="sourcePoint" />
            <mxPoint x="327" y="765" as="targetPoint" />
          </mxGeometry>
        </mxCell>
        <mxCell id="4UCPlDY1eElr0SMKjK0f-78" value="UCS14 - Cadastrar nível de serviço" style="ellipse;whiteSpace=wrap;html=1;" parent="WIyWlLk6GJQsqaUBKTNV-1" vertex="1">
          <mxGeometry x="480" y="540" width="140" height="70" as="geometry" />
        </mxCell>
        <mxCell id="4UCPlDY1eElr0SMKjK0f-80" value="" style="endArrow=none;html=1;rounded=0;exitX=0.625;exitY=0.671;exitDx=0;exitDy=0;exitPerimeter=0;entryX=0;entryY=0.5;entryDx=0;entryDy=0;" parent="WIyWlLk6GJQsqaUBKTNV-1" target="4UCPlDY1eElr0SMKjK0f-78" edge="1">
          <mxGeometry width="50" height="50" relative="1" as="geometry">
            <mxPoint x="57" y="238" as="sourcePoint" />
            <mxPoint x="369" y="554" as="targetPoint" />
          </mxGeometry>
        </mxCell>
        <mxCell id="4UCPlDY1eElr0SMKjK0f-81" value="UCS15 - Autenticar CPF, CNPJ e CEP (API).&lt;span id=&quot;docs-internal-guid-63b1ee13-7fff-c8e3-a732-95ebb196a6bd&quot;&gt;&lt;/span&gt;" style="ellipse;whiteSpace=wrap;html=1;" parent="WIyWlLk6GJQsqaUBKTNV-1" vertex="1">
          <mxGeometry x="480" y="630" width="140" height="70" as="geometry" />
        </mxCell>
        <mxCell id="4UCPlDY1eElr0SMKjK0f-84" value="" style="rounded=1;whiteSpace=wrap;html=1;" parent="WIyWlLk6GJQsqaUBKTNV-1" vertex="1">
          <mxGeometry x="310" y="960" width="550" height="260" as="geometry" />
        </mxCell>
        <mxCell id="4UCPlDY1eElr0SMKjK0f-85" value="UCS16 - Manter fornecedores" style="ellipse;whiteSpace=wrap;html=1;" parent="WIyWlLk6GJQsqaUBKTNV-1" vertex="1">
          <mxGeometry x="480" y="730" width="140" height="70" as="geometry" />
        </mxCell>
        <mxCell id="4UCPlDY1eElr0SMKjK0f-86" value="" style="endArrow=none;html=1;rounded=0;exitX=0.625;exitY=0.671;exitDx=0;exitDy=0;exitPerimeter=0;entryX=0;entryY=0.5;entryDx=0;entryDy=0;" parent="WIyWlLk6GJQsqaUBKTNV-1" target="4UCPlDY1eElr0SMKjK0f-81" edge="1">
          <mxGeometry width="50" height="50" relative="1" as="geometry">
            <mxPoint x="57" y="238" as="sourcePoint" />
            <mxPoint x="369" y="554" as="targetPoint" />
          </mxGeometry>
        </mxCell>
        <mxCell id="4UCPlDY1eElr0SMKjK0f-87" value="" style="endArrow=none;html=1;rounded=0;exitX=0.625;exitY=0.671;exitDx=0;exitDy=0;exitPerimeter=0;entryX=0.029;entryY=0.343;entryDx=0;entryDy=0;entryPerimeter=0;" parent="WIyWlLk6GJQsqaUBKTNV-1" target="4UCPlDY1eElr0SMKjK0f-85" edge="1">
          <mxGeometry width="50" height="50" relative="1" as="geometry">
            <mxPoint x="67" y="248" as="sourcePoint" />
            <mxPoint x="490" y="675" as="targetPoint" />
          </mxGeometry>
        </mxCell>
        <mxCell id="4UCPlDY1eElr0SMKjK0f-88" value="&lt;b&gt;&lt;font style=&quot;font-size: 16px;&quot;&gt;PRESTAÇÃO DE CONTAS&lt;/font&gt;&lt;/b&gt;" style="text;html=1;strokeColor=none;fillColor=none;align=center;verticalAlign=middle;whiteSpace=wrap;rounded=0;" parent="WIyWlLk6GJQsqaUBKTNV-1" vertex="1">
          <mxGeometry x="330" y="930" width="510" height="30" as="geometry" />
        </mxCell>
        <mxCell id="4UCPlDY1eElr0SMKjK0f-89" value="UCS17 - Emitir relatório de faturas&amp;nbsp;" style="ellipse;whiteSpace=wrap;html=1;" parent="WIyWlLk6GJQsqaUBKTNV-1" vertex="1">
          <mxGeometry x="322" y="1000" width="140" height="70" as="geometry" />
        </mxCell>
        <mxCell id="4UCPlDY1eElr0SMKjK0f-92" value="UCS18 - Emitir relatório de despesas&amp;nbsp;" style="ellipse;whiteSpace=wrap;html=1;" parent="WIyWlLk6GJQsqaUBKTNV-1" vertex="1">
          <mxGeometry x="327" y="1110" width="140" height="70" as="geometry" />
        </mxCell>
        <mxCell id="4UCPlDY1eElr0SMKjK0f-95" value="" style="endArrow=none;html=1;rounded=0;exitX=0.25;exitY=0.1;exitDx=0;exitDy=0;exitPerimeter=0;" parent="WIyWlLk6GJQsqaUBKTNV-1" source="cU9DbLTpWD-7K6Nm_5fW-0" target="SQiC8q7nYtbhmfbLze2i-6" edge="1">
          <mxGeometry width="50" height="50" relative="1" as="geometry">
            <mxPoint x="36" y="741" as="sourcePoint" />
            <mxPoint x="45" y="280" as="targetPoint" />
          </mxGeometry>
        </mxCell>
        <mxCell id="SQiC8q7nYtbhmfbLze2i-6" value="" style="triangle;whiteSpace=wrap;html=1;rotation=-90;" parent="WIyWlLk6GJQsqaUBKTNV-1" vertex="1">
          <mxGeometry x="32.120000000000005" y="430" width="22.25" height="30" as="geometry" />
        </mxCell>
        <mxCell id="4UCPlDY1eElr0SMKjK0f-96" value="" style="endArrow=none;html=1;rounded=0;exitX=0;exitY=0.5;exitDx=0;exitDy=0;entryX=0.492;entryY=0.617;entryDx=0;entryDy=0;entryPerimeter=0;" parent="WIyWlLk6GJQsqaUBKTNV-1" source="4UCPlDY1eElr0SMKjK0f-92" edge="1">
          <mxGeometry width="50" height="50" relative="1" as="geometry">
            <mxPoint x="160" y="815" as="sourcePoint" />
            <mxPoint x="32" y="967" as="targetPoint" />
          </mxGeometry>
        </mxCell>
        <mxCell id="4UCPlDY1eElr0SMKjK0f-97" value="" style="endArrow=none;html=1;rounded=0;exitX=0;exitY=1;exitDx=0;exitDy=0;" parent="WIyWlLk6GJQsqaUBKTNV-1" source="4UCPlDY1eElr0SMKjK0f-89" edge="1">
          <mxGeometry width="50" height="50" relative="1" as="geometry">
            <mxPoint x="340" y="1165" as="sourcePoint" />
            <mxPoint x="30" y="970" as="targetPoint" />
          </mxGeometry>
        </mxCell>
        <mxCell id="4UCPlDY1eElr0SMKjK0f-98" value="" style="endArrow=none;html=1;rounded=0;fontStyle=1" parent="WIyWlLk6GJQsqaUBKTNV-1" source="4UCPlDY1eElr0SMKjK0f-89" target="cU9DbLTpWD-7K6Nm_5fW-0" edge="1">
          <mxGeometry width="50" height="50" relative="1" as="geometry">
            <mxPoint x="353" y="1070" as="sourcePoint" />
            <mxPoint x="40" y="980" as="targetPoint" />
          </mxGeometry>
        </mxCell>
        <mxCell id="4UCPlDY1eElr0SMKjK0f-99" value="" style="endArrow=none;html=1;rounded=0;exitX=0.007;exitY=0.4;exitDx=0;exitDy=0;exitPerimeter=0;" parent="WIyWlLk6GJQsqaUBKTNV-1" source="4UCPlDY1eElr0SMKjK0f-92" edge="1">
          <mxGeometry width="50" height="50" relative="1" as="geometry">
            <mxPoint x="364" y="1016" as="sourcePoint" />
            <mxPoint x="68" y="787" as="targetPoint" />
          </mxGeometry>
        </mxCell>
        <mxCell id="4UCPlDY1eElr0SMKjK0f-102" value="UCS19 -&amp;nbsp; Emitir relatório de receitas" style="ellipse;whiteSpace=wrap;html=1;" parent="WIyWlLk6GJQsqaUBKTNV-1" vertex="1">
          <mxGeometry x="540" y="1000" width="140" height="70" as="geometry" />
        </mxCell>
        <mxCell id="4UCPlDY1eElr0SMKjK0f-104" value="" style="endArrow=none;html=1;rounded=0;exitX=0.214;exitY=0;exitDx=0;exitDy=0;exitPerimeter=0;" parent="WIyWlLk6GJQsqaUBKTNV-1" source="4UCPlDY1eElr0SMKjK0f-102" edge="1">
          <mxGeometry width="50" height="50" relative="1" as="geometry">
            <mxPoint x="364" y="1016" as="sourcePoint" />
            <mxPoint x="68" y="787" as="targetPoint" />
          </mxGeometry>
        </mxCell>
        <mxCell id="4UCPlDY1eElr0SMKjK0f-105" value="" style="endArrow=none;html=1;rounded=0;exitX=0.2;exitY=0.114;exitDx=0;exitDy=0;exitPerimeter=0;" parent="WIyWlLk6GJQsqaUBKTNV-1" source="4UCPlDY1eElr0SMKjK0f-102" edge="1">
          <mxGeometry width="50" height="50" relative="1" as="geometry">
            <mxPoint x="353" y="1070" as="sourcePoint" />
            <mxPoint x="40" y="980" as="targetPoint" />
          </mxGeometry>
        </mxCell>
        <mxCell id="4UCPlDY1eElr0SMKjK0f-106" value="UCS20 - Emitir relatório de contratos&amp;nbsp;" style="ellipse;whiteSpace=wrap;html=1;" parent="WIyWlLk6GJQsqaUBKTNV-1" vertex="1">
          <mxGeometry x="540" y="1110" width="140" height="70" as="geometry" />
        </mxCell>
        <mxCell id="4UCPlDY1eElr0SMKjK0f-108" value="" style="endArrow=none;html=1;rounded=0;exitX=0.014;exitY=0.414;exitDx=0;exitDy=0;exitPerimeter=0;" parent="WIyWlLk6GJQsqaUBKTNV-1" source="4UCPlDY1eElr0SMKjK0f-106" edge="1">
          <mxGeometry width="50" height="50" relative="1" as="geometry">
            <mxPoint x="578" y="1018" as="sourcePoint" />
            <mxPoint x="40" y="970" as="targetPoint" />
          </mxGeometry>
        </mxCell>
        <mxCell id="4UCPlDY1eElr0SMKjK0f-109" value="" style="endArrow=none;html=1;rounded=0;fontStyle=1;exitX=0;exitY=1;exitDx=0;exitDy=0;entryX=0.572;entryY=0.347;entryDx=0;entryDy=0;entryPerimeter=0;" parent="WIyWlLk6GJQsqaUBKTNV-1" target="cU9DbLTpWD-7K6Nm_5fW-0" edge="1">
          <mxGeometry width="50" height="50" relative="1" as="geometry">
            <mxPoint x="580" y="1120" as="sourcePoint" />
            <mxPoint x="68" y="787" as="targetPoint" />
          </mxGeometry>
        </mxCell>
        <mxCell id="5yDiXzWv83BswuT4PbV0-1" value="Sistema" style="shape=umlActor;verticalLabelPosition=bottom;verticalAlign=top;html=1;" parent="WIyWlLk6GJQsqaUBKTNV-1" vertex="1">
          <mxGeometry x="1060" y="720" width="30" height="60" as="geometry" />
        </mxCell>
        <mxCell id="5yDiXzWv83BswuT4PbV0-2" value="UCS22 - Calcular impostos" style="ellipse;whiteSpace=wrap;html=1;" parent="WIyWlLk6GJQsqaUBKTNV-1" vertex="1">
          <mxGeometry x="680" y="630" width="140" height="70" as="geometry" />
        </mxCell>
        <mxCell id="5yDiXzWv83BswuT4PbV0-5" value="UCS23 - Calcular taxa de condomínio" style="ellipse;whiteSpace=wrap;html=1;" parent="WIyWlLk6GJQsqaUBKTNV-1" vertex="1">
          <mxGeometry x="680" y="735" width="140" height="70" as="geometry" />
        </mxCell>
        <mxCell id="5yDiXzWv83BswuT4PbV0-6" value="" style="endArrow=none;html=1;rounded=0;entryX=0;entryY=0.3333333333333333;entryDx=0;entryDy=0;entryPerimeter=0;" parent="WIyWlLk6GJQsqaUBKTNV-1" source="5yDiXzWv83BswuT4PbV0-2" target="5yDiXzWv83BswuT4PbV0-1" edge="1">
          <mxGeometry width="50" height="50" relative="1" as="geometry">
            <mxPoint x="676" y="582" as="sourcePoint" />
            <mxPoint x="1050" y="748" as="targetPoint" />
          </mxGeometry>
        </mxCell>
        <mxCell id="5yDiXzWv83BswuT4PbV0-7" value="" style="endArrow=none;html=1;rounded=0;entryX=0;entryY=0.3333333333333333;entryDx=0;entryDy=0;entryPerimeter=0;exitX=1;exitY=0.5;exitDx=0;exitDy=0;" parent="WIyWlLk6GJQsqaUBKTNV-1" source="5yDiXzWv83BswuT4PbV0-5" target="5yDiXzWv83BswuT4PbV0-1" edge="1">
          <mxGeometry width="50" height="50" relative="1" as="geometry">
            <mxPoint x="803" y="730" as="sourcePoint" />
            <mxPoint x="1050" y="790" as="targetPoint" />
          </mxGeometry>
        </mxCell>
      </root>
    </mxGraphModel>
  </diagram>
  <diagram name="arrumado" id="2QEdL8uxEKyV_8l3enPv">
    <mxGraphModel dx="1276" dy="614" grid="1" gridSize="10" guides="1" tooltips="1" connect="1" arrows="1" fold="1" page="1" pageScale="1" pageWidth="1169" pageHeight="1654" math="0" shadow="0">
      <root>
        <mxCell id="MBhiR90r51Uk3er9Oekc-0" />
        <mxCell id="MBhiR90r51Uk3er9Oekc-1" parent="MBhiR90r51Uk3er9Oekc-0" />
        <mxCell id="68NzLlq9jgOMsxDr_C-r-6" value="" style="rounded=1;whiteSpace=wrap;html=1;" parent="MBhiR90r51Uk3er9Oekc-1" vertex="1">
          <mxGeometry x="182.76" y="120" width="790" height="1300" as="geometry" />
        </mxCell>
        <mxCell id="MBhiR90r51Uk3er9Oekc-2" value="" style="rounded=1;whiteSpace=wrap;html=1;" parent="MBhiR90r51Uk3er9Oekc-1" vertex="1">
          <mxGeometry x="337.76" y="660" width="472.24" height="490" as="geometry" />
        </mxCell>
        <mxCell id="MBhiR90r51Uk3er9Oekc-3" value="" style="rounded=1;whiteSpace=wrap;html=1;" parent="MBhiR90r51Uk3er9Oekc-1" vertex="1">
          <mxGeometry x="339.76" y="200" width="470.24" height="405" as="geometry" />
        </mxCell>
        <mxCell id="MBhiR90r51Uk3er9Oekc-4" value="Sindico" style="shape=umlActor;verticalLabelPosition=bottom;verticalAlign=top;html=1;" parent="MBhiR90r51Uk3er9Oekc-1" vertex="1">
          <mxGeometry x="68.76" y="994" width="30" height="60" as="geometry" />
        </mxCell>
        <mxCell id="MBhiR90r51Uk3er9Oekc-5" value="Secretaria" style="shape=umlActor;verticalLabelPosition=bottom;verticalAlign=top;html=1;" parent="MBhiR90r51Uk3er9Oekc-1" vertex="1">
          <mxGeometry x="60" y="660" width="30" height="60" as="geometry" />
        </mxCell>
        <mxCell id="MBhiR90r51Uk3er9Oekc-7" value="&lt;b&gt;&lt;font style=&quot;font-size: 16px;&quot;&gt;CONTAS A PAGAR E A RECEBER&lt;/font&gt;&lt;/b&gt;" style="text;html=1;strokeColor=none;fillColor=none;align=center;verticalAlign=middle;whiteSpace=wrap;rounded=0;" parent="MBhiR90r51Uk3er9Oekc-1" vertex="1">
          <mxGeometry x="394.88" y="160" width="360" height="30" as="geometry" />
        </mxCell>
        <mxCell id="MBhiR90r51Uk3er9Oekc-9" value="UCS05 - Manter pagamentos" style="ellipse;whiteSpace=wrap;html=1;" parent="MBhiR90r51Uk3er9Oekc-1" vertex="1">
          <mxGeometry x="377.76" y="410" width="140" height="70" as="geometry" />
        </mxCell>
        <mxCell id="MBhiR90r51Uk3er9Oekc-10" value="Administrador" style="shape=umlActor;verticalLabelPosition=bottom;verticalAlign=top;html=1;" parent="MBhiR90r51Uk3er9Oekc-1" vertex="1">
          <mxGeometry x="66.89000000000001" y="1260" width="30" height="60" as="geometry" />
        </mxCell>
        <mxCell id="MBhiR90r51Uk3er9Oekc-11" value="Morador" style="shape=umlActor;verticalLabelPosition=bottom;verticalAlign=top;html=1;" parent="MBhiR90r51Uk3er9Oekc-1" vertex="1">
          <mxGeometry x="1035.76" y="293" width="30" height="60" as="geometry" />
        </mxCell>
        <mxCell id="MBhiR90r51Uk3er9Oekc-13" value="Sistema do Banco do Brasil" style="shape=umlActor;verticalLabelPosition=bottom;verticalAlign=top;html=1;" parent="MBhiR90r51Uk3er9Oekc-1" vertex="1">
          <mxGeometry x="1038.76" y="520" width="30" height="60" as="geometry" />
        </mxCell>
        <mxCell id="MBhiR90r51Uk3er9Oekc-14" value="UCS08 - Gerar informações do boleto" style="ellipse;whiteSpace=wrap;html=1;" parent="MBhiR90r51Uk3er9Oekc-1" vertex="1">
          <mxGeometry x="614.76" y="500" width="140" height="70" as="geometry" />
        </mxCell>
        <mxCell id="MBhiR90r51Uk3er9Oekc-21" value="&amp;lt;&amp;lt;include&amp;gt;&amp;gt;" style="html=1;verticalAlign=bottom;labelBackgroundColor=none;endArrow=open;endFill=0;dashed=1;rounded=0;entryX=0;entryY=0.5;entryDx=0;entryDy=0;exitX=1;exitY=0.5;exitDx=0;exitDy=0;" parent="MBhiR90r51Uk3er9Oekc-1" source="68NzLlq9jgOMsxDr_C-r-0" target="MBhiR90r51Uk3er9Oekc-14" edge="1">
          <mxGeometry x="0.0116" width="160" relative="1" as="geometry">
            <mxPoint x="592.76" y="680" as="sourcePoint" />
            <mxPoint x="532.76" y="552.5" as="targetPoint" />
            <mxPoint as="offset" />
          </mxGeometry>
        </mxCell>
        <mxCell id="MBhiR90r51Uk3er9Oekc-22" value="UCS04 - Notificar boletos vencidos" style="ellipse;whiteSpace=wrap;html=1;" parent="MBhiR90r51Uk3er9Oekc-1" vertex="1">
          <mxGeometry x="377.76" y="318" width="140" height="70" as="geometry" />
        </mxCell>
        <mxCell id="MBhiR90r51Uk3er9Oekc-25" value="UCS03 - Gerar extrato financeiro" style="ellipse;whiteSpace=wrap;html=1;" parent="MBhiR90r51Uk3er9Oekc-1" vertex="1">
          <mxGeometry x="377.76" y="230" width="140" height="70" as="geometry" />
        </mxCell>
        <mxCell id="MBhiR90r51Uk3er9Oekc-30" value="&lt;b&gt;&lt;font style=&quot;font-size: 16px;&quot;&gt;CONTRATOS&lt;/font&gt;&lt;/b&gt;" style="text;html=1;strokeColor=none;fillColor=none;align=center;verticalAlign=middle;whiteSpace=wrap;rounded=0;" parent="MBhiR90r51Uk3er9Oekc-1" vertex="1">
          <mxGeometry x="347.76" y="630" width="452.24" height="30" as="geometry" />
        </mxCell>
        <mxCell id="MBhiR90r51Uk3er9Oekc-31" value="UCS01 - Autenticar usuário" style="ellipse;whiteSpace=wrap;html=1;" parent="MBhiR90r51Uk3er9Oekc-1" vertex="1">
          <mxGeometry x="197.76" y="200" width="140" height="70" as="geometry" />
        </mxCell>
        <mxCell id="MBhiR90r51Uk3er9Oekc-33" value="UCS02 - Manter usuário" style="ellipse;whiteSpace=wrap;html=1;" parent="MBhiR90r51Uk3er9Oekc-1" vertex="1">
          <mxGeometry x="252.76" y="1142" width="140" height="70" as="geometry" />
        </mxCell>
        <mxCell id="MBhiR90r51Uk3er9Oekc-36" value="UCS10 - Manter apartamentos" style="ellipse;whiteSpace=wrap;html=1;" parent="MBhiR90r51Uk3er9Oekc-1" vertex="1">
          <mxGeometry x="260" y="1300" width="140" height="70" as="geometry" />
        </mxCell>
        <mxCell id="MBhiR90r51Uk3er9Oekc-38" value="UCS11 - Manter contratos" style="ellipse;whiteSpace=wrap;html=1;" parent="MBhiR90r51Uk3er9Oekc-1" vertex="1">
          <mxGeometry x="364.76" y="850" width="140" height="70" as="geometry" />
        </mxCell>
        <mxCell id="MBhiR90r51Uk3er9Oekc-39" value="UCS16 - Excluir registros" style="ellipse;whiteSpace=wrap;html=1;" parent="MBhiR90r51Uk3er9Oekc-1" vertex="1">
          <mxGeometry x="252.76" y="1220" width="140" height="70" as="geometry" />
        </mxCell>
        <mxCell id="MBhiR90r51Uk3er9Oekc-42" value="UCS14 - Notificar término de contrato" style="ellipse;whiteSpace=wrap;html=1;" parent="MBhiR90r51Uk3er9Oekc-1" vertex="1">
          <mxGeometry x="622.76" y="872" width="140" height="70" as="geometry" />
        </mxCell>
        <mxCell id="MBhiR90r51Uk3er9Oekc-48" value="UCS13 - Autenticar CPF e CNPJ (API).&lt;span id=&quot;docs-internal-guid-63b1ee13-7fff-c8e3-a732-95ebb196a6bd&quot;&gt;&lt;/span&gt;" style="ellipse;whiteSpace=wrap;html=1;" parent="MBhiR90r51Uk3er9Oekc-1" vertex="1">
          <mxGeometry x="622.76" y="690" width="130" height="70" as="geometry" />
        </mxCell>
        <mxCell id="MBhiR90r51Uk3er9Oekc-55" value="UCS15 - Gerar relatórios&amp;nbsp;" style="ellipse;whiteSpace=wrap;html=1;" parent="MBhiR90r51Uk3er9Oekc-1" vertex="1">
          <mxGeometry x="362.76" y="1060" width="140" height="70" as="geometry" />
        </mxCell>
        <mxCell id="MBhiR90r51Uk3er9Oekc-56" value="" style="endArrow=none;html=1;rounded=0;exitX=0.25;exitY=0.1;exitDx=0;exitDy=0;exitPerimeter=0;" parent="MBhiR90r51Uk3er9Oekc-1" source="MBhiR90r51Uk3er9Oekc-4" target="MBhiR90r51Uk3er9Oekc-57" edge="1">
          <mxGeometry width="50" height="50" relative="1" as="geometry">
            <mxPoint x="58.760000000000005" y="901" as="sourcePoint" />
            <mxPoint x="67.76" y="440" as="targetPoint" />
          </mxGeometry>
        </mxCell>
        <mxCell id="MBhiR90r51Uk3er9Oekc-57" value="" style="triangle;whiteSpace=wrap;html=1;rotation=-90;" parent="MBhiR90r51Uk3er9Oekc-1" vertex="1">
          <mxGeometry x="64.87" y="840" width="22.25" height="30" as="geometry" />
        </mxCell>
        <mxCell id="MBhiR90r51Uk3er9Oekc-68" value="Timer System" style="shape=umlActor;verticalLabelPosition=bottom;verticalAlign=top;html=1;" parent="MBhiR90r51Uk3er9Oekc-1" vertex="1">
          <mxGeometry x="1043" y="890" width="30" height="60" as="geometry" />
        </mxCell>
        <mxCell id="QqL8SpUrOYfy8Jrs2cXv-16" value="" style="endArrow=none;html=1;rounded=0;entryX=0;entryY=0.5;entryDx=0;entryDy=0;" parent="MBhiR90r51Uk3er9Oekc-1" target="MBhiR90r51Uk3er9Oekc-31" edge="1">
          <mxGeometry width="50" height="50" relative="1" as="geometry">
            <mxPoint x="92.76" y="680" as="sourcePoint" />
            <mxPoint x="242.76" y="540" as="targetPoint" />
          </mxGeometry>
        </mxCell>
        <mxCell id="QqL8SpUrOYfy8Jrs2cXv-19" value="" style="endArrow=none;html=1;rounded=0;entryX=0;entryY=0.5;entryDx=0;entryDy=0;" parent="MBhiR90r51Uk3er9Oekc-1" target="MBhiR90r51Uk3er9Oekc-25" edge="1">
          <mxGeometry width="50" height="50" relative="1" as="geometry">
            <mxPoint x="92.76" y="680" as="sourcePoint" />
            <mxPoint x="242.76" y="530" as="targetPoint" />
          </mxGeometry>
        </mxCell>
        <mxCell id="QqL8SpUrOYfy8Jrs2cXv-20" value="" style="endArrow=none;html=1;rounded=0;entryX=0;entryY=0.5;entryDx=0;entryDy=0;" parent="MBhiR90r51Uk3er9Oekc-1" target="MBhiR90r51Uk3er9Oekc-22" edge="1">
          <mxGeometry width="50" height="50" relative="1" as="geometry">
            <mxPoint x="100" y="670" as="sourcePoint" />
            <mxPoint x="222.76" y="580" as="targetPoint" />
          </mxGeometry>
        </mxCell>
        <mxCell id="QqL8SpUrOYfy8Jrs2cXv-21" value="" style="endArrow=none;html=1;rounded=0;entryX=0;entryY=0.5;entryDx=0;entryDy=0;" parent="MBhiR90r51Uk3er9Oekc-1" target="MBhiR90r51Uk3er9Oekc-9" edge="1">
          <mxGeometry width="50" height="50" relative="1" as="geometry">
            <mxPoint x="92.76" y="680" as="sourcePoint" />
            <mxPoint x="462.76" y="440" as="targetPoint" />
          </mxGeometry>
        </mxCell>
        <mxCell id="QqL8SpUrOYfy8Jrs2cXv-22" value="" style="endArrow=none;html=1;rounded=0;entryX=0;entryY=0.5;entryDx=0;entryDy=0;" parent="MBhiR90r51Uk3er9Oekc-1" target="68NzLlq9jgOMsxDr_C-r-0" edge="1">
          <mxGeometry width="50" height="50" relative="1" as="geometry">
            <mxPoint x="92.76" y="680" as="sourcePoint" />
            <mxPoint x="352.76" y="552.5" as="targetPoint" />
          </mxGeometry>
        </mxCell>
        <mxCell id="QqL8SpUrOYfy8Jrs2cXv-24" value="" style="endArrow=none;html=1;rounded=0;entryX=0;entryY=0.5;entryDx=0;entryDy=0;" parent="MBhiR90r51Uk3er9Oekc-1" target="68NzLlq9jgOMsxDr_C-r-9" edge="1">
          <mxGeometry width="50" height="50" relative="1" as="geometry">
            <mxPoint x="92.76" y="680" as="sourcePoint" />
            <mxPoint x="522.76" y="720" as="targetPoint" />
          </mxGeometry>
        </mxCell>
        <mxCell id="QqL8SpUrOYfy8Jrs2cXv-25" value="" style="endArrow=none;html=1;rounded=0;entryX=0;entryY=0.3333333333333333;entryDx=0;entryDy=0;entryPerimeter=0;" parent="MBhiR90r51Uk3er9Oekc-1" source="68NzLlq9jgOMsxDr_C-r-1" target="MBhiR90r51Uk3er9Oekc-11" edge="1">
          <mxGeometry width="50" height="50" relative="1" as="geometry">
            <mxPoint x="862.76" y="312.5" as="sourcePoint" />
            <mxPoint x="1062.76" y="310" as="targetPoint" />
          </mxGeometry>
        </mxCell>
        <mxCell id="QqL8SpUrOYfy8Jrs2cXv-27" value="" style="endArrow=none;html=1;rounded=0;entryX=0.006;entryY=0.354;entryDx=0;entryDy=0;entryPerimeter=0;" parent="MBhiR90r51Uk3er9Oekc-1" target="MBhiR90r51Uk3er9Oekc-38" edge="1">
          <mxGeometry width="50" height="50" relative="1" as="geometry">
            <mxPoint x="92.76" y="680" as="sourcePoint" />
            <mxPoint x="252.76" y="760" as="targetPoint" />
          </mxGeometry>
        </mxCell>
        <mxCell id="QqL8SpUrOYfy8Jrs2cXv-32" value="" style="endArrow=none;html=1;rounded=0;exitX=1;exitY=0.5;exitDx=0;exitDy=0;" parent="MBhiR90r51Uk3er9Oekc-1" source="MBhiR90r51Uk3er9Oekc-57" target="MBhiR90r51Uk3er9Oekc-5" edge="1">
          <mxGeometry width="50" height="50" relative="1" as="geometry">
            <mxPoint x="62.760000000000005" y="820" as="sourcePoint" />
            <mxPoint x="112.76" y="770" as="targetPoint" />
          </mxGeometry>
        </mxCell>
        <mxCell id="QqL8SpUrOYfy8Jrs2cXv-33" value="" style="endArrow=none;html=1;rounded=0;entryX=0;entryY=0.3333333333333333;entryDx=0;entryDy=0;entryPerimeter=0;" parent="MBhiR90r51Uk3er9Oekc-1" source="MBhiR90r51Uk3er9Oekc-14" target="MBhiR90r51Uk3er9Oekc-13" edge="1">
          <mxGeometry width="50" height="50" relative="1" as="geometry">
            <mxPoint x="932.76" y="580" as="sourcePoint" />
            <mxPoint x="982.76" y="530" as="targetPoint" />
          </mxGeometry>
        </mxCell>
        <mxCell id="QqL8SpUrOYfy8Jrs2cXv-36" value="" style="endArrow=none;html=1;rounded=0;exitX=1;exitY=0.5;exitDx=0;exitDy=0;" parent="MBhiR90r51Uk3er9Oekc-1" source="MBhiR90r51Uk3er9Oekc-42" edge="1">
          <mxGeometry width="50" height="50" relative="1" as="geometry">
            <mxPoint x="972.76" y="930" as="sourcePoint" />
            <mxPoint x="1052.76" y="910" as="targetPoint" />
          </mxGeometry>
        </mxCell>
        <mxCell id="D9JsUvIJmJEymeMajYEg-9" value="API CPF/CNPJ" style="shape=umlActor;verticalLabelPosition=bottom;verticalAlign=top;html=1;" parent="MBhiR90r51Uk3er9Oekc-1" vertex="1">
          <mxGeometry x="1039.76" y="700" width="30" height="60" as="geometry" />
        </mxCell>
        <mxCell id="D9JsUvIJmJEymeMajYEg-10" value="" style="endArrow=none;html=1;rounded=0;exitX=1.005;exitY=0.414;exitDx=0;exitDy=0;exitPerimeter=0;" parent="MBhiR90r51Uk3er9Oekc-1" source="MBhiR90r51Uk3er9Oekc-48" edge="1">
          <mxGeometry width="50" height="50" relative="1" as="geometry">
            <mxPoint x="837.76" y="760" as="sourcePoint" />
            <mxPoint x="1040" y="720" as="targetPoint" />
          </mxGeometry>
        </mxCell>
        <mxCell id="M2VUa_wI_wuT3sx5isjw-0" value="&amp;lt;&amp;lt;include&amp;gt;&amp;gt;" style="html=1;verticalAlign=bottom;labelBackgroundColor=none;endArrow=open;endFill=0;dashed=1;rounded=0;entryX=0.5;entryY=0;entryDx=0;entryDy=0;exitX=0.5;exitY=1;exitDx=0;exitDy=0;" parent="MBhiR90r51Uk3er9Oekc-1" source="68NzLlq9jgOMsxDr_C-r-1" target="MBhiR90r51Uk3er9Oekc-14" edge="1">
          <mxGeometry x="0.0464" y="-25" width="160" relative="1" as="geometry">
            <mxPoint x="769.0200000000002" y="416.56999999999994" as="sourcePoint" />
            <mxPoint x="762.1400000000001" y="368.55999999999995" as="targetPoint" />
            <mxPoint as="offset" />
          </mxGeometry>
        </mxCell>
        <mxCell id="q9ISMWcMRidsnEVl983d-1" value="UCS12 - Rescindir contrato" style="ellipse;whiteSpace=wrap;html=1;" parent="MBhiR90r51Uk3er9Oekc-1" vertex="1">
          <mxGeometry x="364.76" y="970" width="140" height="70" as="geometry" />
        </mxCell>
        <mxCell id="68NzLlq9jgOMsxDr_C-r-0" value="UCS06 - Gerar&lt;br style=&quot;border-color: var(--border-color);&quot;&gt;boletos" style="ellipse;whiteSpace=wrap;html=1;" parent="MBhiR90r51Uk3er9Oekc-1" vertex="1">
          <mxGeometry x="382.76" y="500" width="140" height="70" as="geometry" />
        </mxCell>
        <mxCell id="68NzLlq9jgOMsxDr_C-r-1" value="UCS07 - Gerar&lt;br style=&quot;border-color: var(--border-color);&quot;&gt;2ª via de boleto" style="ellipse;whiteSpace=wrap;html=1;" parent="MBhiR90r51Uk3er9Oekc-1" vertex="1">
          <mxGeometry x="612.76" y="283" width="140" height="70" as="geometry" />
        </mxCell>
        <mxCell id="68NzLlq9jgOMsxDr_C-r-2" value="" style="endArrow=none;html=1;rounded=0;exitX=0.5;exitY=0;exitDx=0;exitDy=0;exitPerimeter=0;entryX=0;entryY=0.5;entryDx=0;entryDy=0;" parent="MBhiR90r51Uk3er9Oekc-1" source="MBhiR90r51Uk3er9Oekc-10" target="68NzLlq9jgOMsxDr_C-r-3" edge="1">
          <mxGeometry width="50" height="50" relative="1" as="geometry">
            <mxPoint x="212.76" y="1220" as="sourcePoint" />
            <mxPoint x="262.76" y="1170" as="targetPoint" />
          </mxGeometry>
        </mxCell>
        <mxCell id="68NzLlq9jgOMsxDr_C-r-3" value="" style="triangle;whiteSpace=wrap;html=1;rotation=-90;" parent="MBhiR90r51Uk3er9Oekc-1" vertex="1">
          <mxGeometry x="71.77000000000001" y="1162" width="22.25" height="30" as="geometry" />
        </mxCell>
        <mxCell id="68NzLlq9jgOMsxDr_C-r-5" value="" style="endArrow=none;html=1;rounded=0;exitX=1;exitY=0.5;exitDx=0;exitDy=0;" parent="MBhiR90r51Uk3er9Oekc-1" source="68NzLlq9jgOMsxDr_C-r-3" target="MBhiR90r51Uk3er9Oekc-4" edge="1">
          <mxGeometry width="50" height="50" relative="1" as="geometry">
            <mxPoint x="142.76" y="1170" as="sourcePoint" />
            <mxPoint x="192.76" y="1120" as="targetPoint" />
          </mxGeometry>
        </mxCell>
        <mxCell id="68NzLlq9jgOMsxDr_C-r-7" value="&lt;font color=&quot;#000099&quot; style=&quot;font-size: 18px;&quot;&gt;&lt;b&gt;KnnSystem&lt;/b&gt;&lt;/font&gt;" style="text;html=1;strokeColor=none;fillColor=none;align=center;verticalAlign=middle;whiteSpace=wrap;rounded=0;" parent="MBhiR90r51Uk3er9Oekc-1" vertex="1">
          <mxGeometry x="232.76" y="130" width="160" height="40" as="geometry" />
        </mxCell>
        <mxCell id="68NzLlq9jgOMsxDr_C-r-9" value="UCS09 - Manter&lt;br style=&quot;border-color: var(--border-color);&quot;&gt;fornecedores" style="ellipse;whiteSpace=wrap;html=1;" parent="MBhiR90r51Uk3er9Oekc-1" vertex="1">
          <mxGeometry x="362.76" y="691" width="140" height="70" as="geometry" />
        </mxCell>
        <mxCell id="68NzLlq9jgOMsxDr_C-r-10" value="" style="endArrow=none;html=1;rounded=0;entryX=0;entryY=0.5;entryDx=0;entryDy=0;exitX=1;exitY=0.3333333333333333;exitDx=0;exitDy=0;exitPerimeter=0;" parent="MBhiR90r51Uk3er9Oekc-1" source="MBhiR90r51Uk3er9Oekc-4" target="MBhiR90r51Uk3er9Oekc-55" edge="1">
          <mxGeometry width="50" height="50" relative="1" as="geometry">
            <mxPoint x="102.76" y="1060" as="sourcePoint" />
            <mxPoint x="302.76" y="1140" as="targetPoint" />
          </mxGeometry>
        </mxCell>
        <mxCell id="68NzLlq9jgOMsxDr_C-r-12" value="" style="endArrow=none;html=1;rounded=0;entryX=0;entryY=0.5;entryDx=0;entryDy=0;" parent="MBhiR90r51Uk3er9Oekc-1" target="MBhiR90r51Uk3er9Oekc-39" edge="1">
          <mxGeometry width="50" height="50" relative="1" as="geometry">
            <mxPoint x="100" y="1280" as="sourcePoint" />
            <mxPoint x="312.76" y="1390" as="targetPoint" />
          </mxGeometry>
        </mxCell>
        <mxCell id="68NzLlq9jgOMsxDr_C-r-15" value="&amp;lt;&amp;lt;extend&amp;gt;&amp;gt;" style="html=1;verticalAlign=bottom;labelBackgroundColor=none;endArrow=open;endFill=0;dashed=1;rounded=0;entryX=0.5;entryY=0;entryDx=0;entryDy=0;exitX=0.5;exitY=1;exitDx=0;exitDy=0;" parent="MBhiR90r51Uk3er9Oekc-1" source="MBhiR90r51Uk3er9Oekc-38" target="q9ISMWcMRidsnEVl983d-1" edge="1">
          <mxGeometry x="-0.1155" width="160" relative="1" as="geometry">
            <mxPoint x="452.76" y="970" as="sourcePoint" />
            <mxPoint x="612.76" y="970" as="targetPoint" />
            <mxPoint as="offset" />
          </mxGeometry>
        </mxCell>
        <mxCell id="nsUN26SLC_aDs0-MaYQJ-0" value="" style="endArrow=none;html=1;rounded=0;entryX=0;entryY=0.5;entryDx=0;entryDy=0;" parent="MBhiR90r51Uk3er9Oekc-1" target="MBhiR90r51Uk3er9Oekc-36" edge="1">
          <mxGeometry width="50" height="50" relative="1" as="geometry">
            <mxPoint x="100" y="1280" as="sourcePoint" />
            <mxPoint x="303" y="1295" as="targetPoint" />
          </mxGeometry>
        </mxCell>
        <mxCell id="nsUN26SLC_aDs0-MaYQJ-1" value="" style="endArrow=none;html=1;rounded=0;entryX=0;entryY=0.5;entryDx=0;entryDy=0;" parent="MBhiR90r51Uk3er9Oekc-1" target="MBhiR90r51Uk3er9Oekc-33" edge="1">
          <mxGeometry width="50" height="50" relative="1" as="geometry">
            <mxPoint x="100" y="1280" as="sourcePoint" />
            <mxPoint x="282" y="1265" as="targetPoint" />
          </mxGeometry>
        </mxCell>
        <mxCell id="emYHhrh7Dptl-zpz51L6-0" value="UCS16 - Manter morador" style="ellipse;whiteSpace=wrap;html=1;" parent="MBhiR90r51Uk3er9Oekc-1" vertex="1">
          <mxGeometry x="362.76" y="770" width="140" height="70" as="geometry" />
        </mxCell>
        <mxCell id="emYHhrh7Dptl-zpz51L6-1" value="" style="endArrow=none;html=1;rounded=0;entryX=0;entryY=0.5;entryDx=0;entryDy=0;exitX=1;exitY=0.3333333333333333;exitDx=0;exitDy=0;exitPerimeter=0;" parent="MBhiR90r51Uk3er9Oekc-1" source="MBhiR90r51Uk3er9Oekc-5" target="emYHhrh7Dptl-zpz51L6-0" edge="1">
          <mxGeometry width="50" height="50" relative="1" as="geometry">
            <mxPoint x="102.76" y="690" as="sourcePoint" />
            <mxPoint x="373" y="736" as="targetPoint" />
          </mxGeometry>
        </mxCell>
        <mxCell id="UAo1D1qjf33BydHlCJJq-0" value="&amp;lt;&amp;lt;extend&amp;gt;&amp;gt;" style="html=1;verticalAlign=bottom;labelBackgroundColor=none;endArrow=open;endFill=0;dashed=1;rounded=0;exitX=1;exitY=0.5;exitDx=0;exitDy=0;" edge="1" parent="MBhiR90r51Uk3er9Oekc-1" source="68NzLlq9jgOMsxDr_C-r-9" target="MBhiR90r51Uk3er9Oekc-48">
          <mxGeometry width="160" relative="1" as="geometry">
            <mxPoint x="573.38" y="760" as="sourcePoint" />
            <mxPoint x="573.38" y="708" as="targetPoint" />
          </mxGeometry>
        </mxCell>
      </root>
    </mxGraphModel>
  </diagram>
  <diagram id="t3NAtUoo3s6aYXqxR_aH" name=" fluxo alternativo (1-8)">
    <mxGraphModel dx="1674" dy="844" grid="1" gridSize="10" guides="1" tooltips="1" connect="1" arrows="1" fold="1" page="1" pageScale="1" pageWidth="1169" pageHeight="1654" math="0" shadow="0">
      <root>
        <mxCell id="0" />
        <mxCell id="1" parent="0" />
        <mxCell id="vQWZp5_PyWRkp0Ibas1v-3" value="" style="endArrow=classic;html=1;rounded=0;entryX=0;entryY=0.5;entryDx=0;entryDy=0;exitX=1;exitY=0.5;exitDx=0;exitDy=0;" parent="1" source="vQWZp5_PyWRkp0Ibas1v-7" target="vQWZp5_PyWRkp0Ibas1v-4" edge="1">
          <mxGeometry width="50" height="50" relative="1" as="geometry">
            <mxPoint x="230" y="130" as="sourcePoint" />
            <mxPoint x="330" y="90" as="targetPoint" />
          </mxGeometry>
        </mxCell>
        <mxCell id="vQWZp5_PyWRkp0Ibas1v-4" value="01 - O ator insere CPF ou senha inválida" style="ellipse;whiteSpace=wrap;html=1;" parent="1" vertex="1">
          <mxGeometry x="330" y="40" width="200" height="60" as="geometry" />
        </mxCell>
        <mxCell id="vQWZp5_PyWRkp0Ibas1v-5" value="02 - O ator esquece a senha" style="ellipse;whiteSpace=wrap;html=1;" parent="1" vertex="1">
          <mxGeometry x="320" y="110" width="200" height="60" as="geometry" />
        </mxCell>
        <mxCell id="vQWZp5_PyWRkp0Ibas1v-6" value="" style="endArrow=classic;html=1;rounded=0;entryX=0;entryY=0.5;entryDx=0;entryDy=0;exitX=1;exitY=0.5;exitDx=0;exitDy=0;" parent="1" source="vQWZp5_PyWRkp0Ibas1v-7" target="vQWZp5_PyWRkp0Ibas1v-5" edge="1">
          <mxGeometry width="50" height="50" relative="1" as="geometry">
            <mxPoint x="230" y="130" as="sourcePoint" />
            <mxPoint x="350" y="210" as="targetPoint" />
          </mxGeometry>
        </mxCell>
        <mxCell id="vQWZp5_PyWRkp0Ibas1v-7" value="UCS01 - Autenticar Usuário" style="shape=hexagon;perimeter=hexagonPerimeter2;whiteSpace=wrap;html=1;fixedSize=1;" parent="1" vertex="1">
          <mxGeometry x="70" y="90" width="120" height="80" as="geometry" />
        </mxCell>
        <mxCell id="vQWZp5_PyWRkp0Ibas1v-8" value="03 - primeiro acesso" style="ellipse;whiteSpace=wrap;html=1;" parent="1" vertex="1">
          <mxGeometry x="320" y="180" width="200" height="60" as="geometry" />
        </mxCell>
        <mxCell id="vQWZp5_PyWRkp0Ibas1v-9" value="" style="endArrow=classic;html=1;rounded=0;exitX=1;exitY=0.5;exitDx=0;exitDy=0;entryX=0;entryY=0.5;entryDx=0;entryDy=0;" parent="1" source="vQWZp5_PyWRkp0Ibas1v-7" target="vQWZp5_PyWRkp0Ibas1v-8" edge="1">
          <mxGeometry width="50" height="50" relative="1" as="geometry">
            <mxPoint x="250" y="250" as="sourcePoint" />
            <mxPoint x="300" y="200" as="targetPoint" />
          </mxGeometry>
        </mxCell>
        <mxCell id="vQWZp5_PyWRkp0Ibas1v-10" value="UCS02 - Manter Usuário" style="shape=hexagon;perimeter=hexagonPerimeter2;whiteSpace=wrap;html=1;fixedSize=1;" parent="1" vertex="1">
          <mxGeometry x="70" y="450" width="120" height="80" as="geometry" />
        </mxCell>
        <mxCell id="vQWZp5_PyWRkp0Ibas1v-11" value="&lt;p style=&quot;line-height:1.38;margin-top:0pt;margin-bottom:0pt;&quot; dir=&quot;ltr&quot;&gt;&lt;/p&gt;&lt;div&gt;&lt;/div&gt;&lt;span style=&quot;font-size: 10pt; font-family: &amp;quot;Times New Roman&amp;quot;, serif; background-color: transparent; font-variant-numeric: normal; font-variant-east-asian: normal; font-variant-alternates: normal; vertical-align: baseline;&quot;&gt;1 - Usuário já cadastrado&lt;br&gt;&lt;/span&gt;&lt;span id=&quot;docs-internal-guid-5f927523-7fff-8853-6be7-95d3d1e5f2d8&quot;&gt;&lt;/span&gt;" style="ellipse;whiteSpace=wrap;html=1;" parent="1" vertex="1">
          <mxGeometry x="310" y="260" width="200" height="60" as="geometry" />
        </mxCell>
        <mxCell id="vQWZp5_PyWRkp0Ibas1v-13" value="&lt;p style=&quot;line-height:1.38;margin-top:0pt;margin-bottom:0pt;&quot; dir=&quot;ltr&quot;&gt;&lt;/p&gt;&lt;div&gt;&lt;/div&gt;&lt;span id=&quot;docs-internal-guid-10aaa36b-7fff-0a55-26d9-2fcc0252b96f&quot;&gt;&lt;/span&gt;&lt;span id=&quot;docs-internal-guid-10aaa36b-7fff-0a55-26d9-2fcc0252b96f&quot;&gt;&lt;/span&gt;&lt;span id=&quot;docs-internal-guid-10aaa36b-7fff-0a55-26d9-2fcc0252b96f&quot;&gt;&lt;/span&gt;2 - Dados inválidos&lt;br&gt;&lt;span id=&quot;docs-internal-guid-5f927523-7fff-8853-6be7-95d3d1e5f2d8&quot;&gt;&lt;/span&gt;" style="ellipse;whiteSpace=wrap;html=1;" parent="1" vertex="1">
          <mxGeometry x="310" y="330" width="200" height="60" as="geometry" />
        </mxCell>
        <mxCell id="vQWZp5_PyWRkp0Ibas1v-14" value="&lt;p style=&quot;line-height:1.38;margin-top:0pt;margin-bottom:0pt;&quot; dir=&quot;ltr&quot;&gt;&lt;/p&gt;&lt;div&gt;&lt;/div&gt;&lt;span id=&quot;docs-internal-guid-10aaa36b-7fff-0a55-26d9-2fcc0252b96f&quot;&gt;&lt;/span&gt;3 - consultar usuários&lt;br&gt;&lt;span id=&quot;docs-internal-guid-5f927523-7fff-8853-6be7-95d3d1e5f2d8&quot;&gt;&lt;/span&gt;" style="ellipse;whiteSpace=wrap;html=1;" parent="1" vertex="1">
          <mxGeometry x="310" y="400" width="200" height="60" as="geometry" />
        </mxCell>
        <mxCell id="vQWZp5_PyWRkp0Ibas1v-15" value="&lt;p style=&quot;line-height:1.38;margin-top:0pt;margin-bottom:0pt;&quot; dir=&quot;ltr&quot;&gt;&lt;/p&gt;&lt;div&gt;&lt;/div&gt;&lt;span id=&quot;docs-internal-guid-10aaa36b-7fff-0a55-26d9-2fcc0252b96f&quot;&gt;&lt;/span&gt;4 - consultar usuário inexistente&amp;nbsp;&lt;br&gt;&lt;span id=&quot;docs-internal-guid-5f927523-7fff-8853-6be7-95d3d1e5f2d8&quot;&gt;&lt;/span&gt;" style="ellipse;whiteSpace=wrap;html=1;" parent="1" vertex="1">
          <mxGeometry x="310" y="470" width="200" height="60" as="geometry" />
        </mxCell>
        <mxCell id="vQWZp5_PyWRkp0Ibas1v-16" value="&lt;p style=&quot;line-height:1.38;margin-top:0pt;margin-bottom:0pt;&quot; dir=&quot;ltr&quot;&gt;&lt;/p&gt;&lt;div&gt;&lt;/div&gt;&lt;span id=&quot;docs-internal-guid-10aaa36b-7fff-0a55-26d9-2fcc0252b96f&quot;&gt;&lt;/span&gt;5 - Alterar dados de um usuário&lt;br&gt;&lt;span id=&quot;docs-internal-guid-5f927523-7fff-8853-6be7-95d3d1e5f2d8&quot;&gt;&lt;/span&gt;" style="ellipse;whiteSpace=wrap;html=1;" parent="1" vertex="1">
          <mxGeometry x="310" y="540" width="200" height="60" as="geometry" />
        </mxCell>
        <mxCell id="vQWZp5_PyWRkp0Ibas1v-17" value="&lt;p style=&quot;line-height:1.38;margin-top:0pt;margin-bottom:0pt;&quot; dir=&quot;ltr&quot;&gt;&lt;/p&gt;&lt;div&gt;&lt;/div&gt;&lt;span id=&quot;docs-internal-guid-10aaa36b-7fff-0a55-26d9-2fcc0252b96f&quot;&gt;&lt;/span&gt;6 - Inativar usuário&lt;br&gt;&lt;span id=&quot;docs-internal-guid-5f927523-7fff-8853-6be7-95d3d1e5f2d8&quot;&gt;&lt;/span&gt;" style="ellipse;whiteSpace=wrap;html=1;" parent="1" vertex="1">
          <mxGeometry x="310" y="610" width="200" height="60" as="geometry" />
        </mxCell>
        <mxCell id="vQWZp5_PyWRkp0Ibas1v-18" value="&lt;p style=&quot;line-height:1.38;margin-top:0pt;margin-bottom:0pt;&quot; dir=&quot;ltr&quot;&gt;&lt;/p&gt;&lt;div&gt;&lt;/div&gt;&lt;span id=&quot;docs-internal-guid-10aaa36b-7fff-0a55-26d9-2fcc0252b96f&quot;&gt;&lt;/span&gt;7 - Ativar usuário que foi inativado&lt;br&gt;&lt;span id=&quot;docs-internal-guid-5f927523-7fff-8853-6be7-95d3d1e5f2d8&quot;&gt;&lt;/span&gt;" style="ellipse;whiteSpace=wrap;html=1;" parent="1" vertex="1">
          <mxGeometry x="310" y="680" width="200" height="60" as="geometry" />
        </mxCell>
        <mxCell id="vQWZp5_PyWRkp0Ibas1v-19" value="" style="endArrow=classic;html=1;rounded=0;exitX=1;exitY=0.5;exitDx=0;exitDy=0;entryX=0;entryY=0.5;entryDx=0;entryDy=0;" parent="1" source="vQWZp5_PyWRkp0Ibas1v-10" target="vQWZp5_PyWRkp0Ibas1v-11" edge="1">
          <mxGeometry width="50" height="50" relative="1" as="geometry">
            <mxPoint x="210" y="440" as="sourcePoint" />
            <mxPoint x="290" y="520" as="targetPoint" />
          </mxGeometry>
        </mxCell>
        <mxCell id="vQWZp5_PyWRkp0Ibas1v-20" value="" style="endArrow=classic;html=1;rounded=0;entryX=0;entryY=0.5;entryDx=0;entryDy=0;exitX=1;exitY=0.5;exitDx=0;exitDy=0;" parent="1" source="vQWZp5_PyWRkp0Ibas1v-10" target="vQWZp5_PyWRkp0Ibas1v-13" edge="1">
          <mxGeometry width="50" height="50" relative="1" as="geometry">
            <mxPoint x="220" y="480" as="sourcePoint" />
            <mxPoint x="320" y="300" as="targetPoint" />
          </mxGeometry>
        </mxCell>
        <mxCell id="vQWZp5_PyWRkp0Ibas1v-21" value="" style="endArrow=classic;html=1;rounded=0;entryX=0;entryY=0.5;entryDx=0;entryDy=0;exitX=1;exitY=0.5;exitDx=0;exitDy=0;" parent="1" source="vQWZp5_PyWRkp0Ibas1v-10" target="vQWZp5_PyWRkp0Ibas1v-14" edge="1">
          <mxGeometry width="50" height="50" relative="1" as="geometry">
            <mxPoint x="230" y="370" as="sourcePoint" />
            <mxPoint x="320" y="370" as="targetPoint" />
          </mxGeometry>
        </mxCell>
        <mxCell id="vQWZp5_PyWRkp0Ibas1v-22" value="" style="endArrow=classic;html=1;rounded=0;entryX=0;entryY=0.5;entryDx=0;entryDy=0;exitX=1;exitY=0.5;exitDx=0;exitDy=0;" parent="1" source="vQWZp5_PyWRkp0Ibas1v-10" target="vQWZp5_PyWRkp0Ibas1v-15" edge="1">
          <mxGeometry width="50" height="50" relative="1" as="geometry">
            <mxPoint x="220" y="480" as="sourcePoint" />
            <mxPoint x="320" y="430" as="targetPoint" />
          </mxGeometry>
        </mxCell>
        <mxCell id="vQWZp5_PyWRkp0Ibas1v-23" value="" style="endArrow=classic;html=1;rounded=0;entryX=0;entryY=0.5;entryDx=0;entryDy=0;exitX=1;exitY=0.5;exitDx=0;exitDy=0;" parent="1" source="vQWZp5_PyWRkp0Ibas1v-10" target="vQWZp5_PyWRkp0Ibas1v-16" edge="1">
          <mxGeometry width="50" height="50" relative="1" as="geometry">
            <mxPoint x="230" y="370" as="sourcePoint" />
            <mxPoint x="320" y="510" as="targetPoint" />
          </mxGeometry>
        </mxCell>
        <mxCell id="vQWZp5_PyWRkp0Ibas1v-24" value="" style="endArrow=classic;html=1;rounded=0;entryX=0;entryY=0.5;entryDx=0;entryDy=0;exitX=1;exitY=0.5;exitDx=0;exitDy=0;" parent="1" source="vQWZp5_PyWRkp0Ibas1v-10" target="vQWZp5_PyWRkp0Ibas1v-17" edge="1">
          <mxGeometry width="50" height="50" relative="1" as="geometry">
            <mxPoint x="230" y="370" as="sourcePoint" />
            <mxPoint x="320" y="580" as="targetPoint" />
          </mxGeometry>
        </mxCell>
        <mxCell id="vQWZp5_PyWRkp0Ibas1v-25" value="" style="endArrow=classic;html=1;rounded=0;entryX=0;entryY=0.5;entryDx=0;entryDy=0;exitX=1;exitY=0.5;exitDx=0;exitDy=0;" parent="1" source="vQWZp5_PyWRkp0Ibas1v-10" target="vQWZp5_PyWRkp0Ibas1v-18" edge="1">
          <mxGeometry width="50" height="50" relative="1" as="geometry">
            <mxPoint x="230" y="490" as="sourcePoint" />
            <mxPoint x="320" y="650" as="targetPoint" />
          </mxGeometry>
        </mxCell>
        <mxCell id="vQWZp5_PyWRkp0Ibas1v-26" value="UCS03 - Gerar extrato financeiro" style="shape=hexagon;perimeter=hexagonPerimeter2;whiteSpace=wrap;html=1;fixedSize=1;" parent="1" vertex="1">
          <mxGeometry x="70" y="810" width="120" height="80" as="geometry" />
        </mxCell>
        <mxCell id="vQWZp5_PyWRkp0Ibas1v-27" value="&lt;p style=&quot;line-height:1.38;margin-top:0pt;margin-bottom:0pt;&quot; dir=&quot;ltr&quot;&gt;&lt;/p&gt;&lt;div&gt;&lt;/div&gt;&lt;span id=&quot;docs-internal-guid-10aaa36b-7fff-0a55-26d9-2fcc0252b96f&quot;&gt;&lt;/span&gt;1 - sem valor para o período&lt;br&gt;&lt;span id=&quot;docs-internal-guid-5f927523-7fff-8853-6be7-95d3d1e5f2d8&quot;&gt;&lt;/span&gt;" style="ellipse;whiteSpace=wrap;html=1;" parent="1" vertex="1">
          <mxGeometry x="310" y="767" width="200" height="60" as="geometry" />
        </mxCell>
        <mxCell id="vQWZp5_PyWRkp0Ibas1v-28" value="&lt;p style=&quot;line-height:1.38;margin-top:0pt;margin-bottom:0pt;&quot; dir=&quot;ltr&quot;&gt;&lt;/p&gt;&lt;div&gt;&lt;/div&gt;&lt;span id=&quot;docs-internal-guid-10aaa36b-7fff-0a55-26d9-2fcc0252b96f&quot;&gt;&lt;/span&gt;2 - parâmetro inválido&lt;br&gt;&lt;span id=&quot;docs-internal-guid-5f927523-7fff-8853-6be7-95d3d1e5f2d8&quot;&gt;&lt;/span&gt;" style="ellipse;whiteSpace=wrap;html=1;" parent="1" vertex="1">
          <mxGeometry x="310" y="840" width="200" height="60" as="geometry" />
        </mxCell>
        <mxCell id="vQWZp5_PyWRkp0Ibas1v-29" value="" style="endArrow=classic;html=1;rounded=0;exitX=1;exitY=0.5;exitDx=0;exitDy=0;entryX=0.01;entryY=0.617;entryDx=0;entryDy=0;entryPerimeter=0;" parent="1" source="vQWZp5_PyWRkp0Ibas1v-26" target="vQWZp5_PyWRkp0Ibas1v-27" edge="1">
          <mxGeometry width="50" height="50" relative="1" as="geometry">
            <mxPoint x="260" y="860" as="sourcePoint" />
            <mxPoint x="350" y="940" as="targetPoint" />
          </mxGeometry>
        </mxCell>
        <mxCell id="vQWZp5_PyWRkp0Ibas1v-30" value="" style="endArrow=classic;html=1;rounded=0;exitX=1;exitY=0.5;exitDx=0;exitDy=0;entryX=0;entryY=0.5;entryDx=0;entryDy=0;" parent="1" source="vQWZp5_PyWRkp0Ibas1v-26" target="vQWZp5_PyWRkp0Ibas1v-28" edge="1">
          <mxGeometry width="50" height="50" relative="1" as="geometry">
            <mxPoint x="250" y="850" as="sourcePoint" />
            <mxPoint x="322" y="814" as="targetPoint" />
          </mxGeometry>
        </mxCell>
        <mxCell id="vQWZp5_PyWRkp0Ibas1v-31" value="&lt;p style=&quot;line-height:1.38;margin-top:0pt;margin-bottom:0pt;&quot; dir=&quot;ltr&quot;&gt;&lt;/p&gt;&lt;div&gt;&lt;/div&gt;&lt;span id=&quot;docs-internal-guid-10aaa36b-7fff-0a55-26d9-2fcc0252b96f&quot;&gt;&lt;/span&gt;3 - imprimir extrato&lt;br&gt;&lt;span id=&quot;docs-internal-guid-5f927523-7fff-8853-6be7-95d3d1e5f2d8&quot;&gt;&lt;/span&gt;" style="ellipse;whiteSpace=wrap;html=1;" parent="1" vertex="1">
          <mxGeometry x="300" y="920" width="200" height="60" as="geometry" />
        </mxCell>
        <mxCell id="vQWZp5_PyWRkp0Ibas1v-32" value="" style="endArrow=classic;html=1;rounded=0;exitX=1;exitY=0.5;exitDx=0;exitDy=0;entryX=0;entryY=0.5;entryDx=0;entryDy=0;" parent="1" source="vQWZp5_PyWRkp0Ibas1v-26" target="vQWZp5_PyWRkp0Ibas1v-31" edge="1">
          <mxGeometry width="50" height="50" relative="1" as="geometry">
            <mxPoint x="250" y="850" as="sourcePoint" />
            <mxPoint x="320" y="880" as="targetPoint" />
          </mxGeometry>
        </mxCell>
        <mxCell id="v8RYx34QPijBaL7qL98_-1" value="" style="edgeStyle=orthogonalEdgeStyle;rounded=0;orthogonalLoop=1;jettySize=auto;html=1;" parent="1" source="obsh2RYLg5jSwEAVxkv_-1" target="obsh2RYLg5jSwEAVxkv_-3" edge="1">
          <mxGeometry relative="1" as="geometry" />
        </mxCell>
        <mxCell id="obsh2RYLg5jSwEAVxkv_-1" value="UCS04 - notificar boletos vencidos" style="shape=hexagon;perimeter=hexagonPerimeter2;whiteSpace=wrap;html=1;fixedSize=1;size=20;" parent="1" vertex="1">
          <mxGeometry x="70" y="1080" width="120" height="80" as="geometry" />
        </mxCell>
        <mxCell id="obsh2RYLg5jSwEAVxkv_-2" value="&lt;p style=&quot;line-height:1.38;margin-top:0pt;margin-bottom:0pt;&quot; dir=&quot;ltr&quot;&gt;&lt;/p&gt;&lt;div&gt;&lt;/div&gt;&lt;span id=&quot;docs-internal-guid-10aaa36b-7fff-0a55-26d9-2fcc0252b96f&quot;&gt;&lt;/span&gt;1 - Notificação já emitida&lt;br&gt;&lt;span id=&quot;docs-internal-guid-5f927523-7fff-8853-6be7-95d3d1e5f2d8&quot;&gt;&lt;/span&gt;" style="ellipse;whiteSpace=wrap;html=1;" parent="1" vertex="1">
          <mxGeometry x="290" y="1020" width="200" height="60" as="geometry" />
        </mxCell>
        <mxCell id="obsh2RYLg5jSwEAVxkv_-3" value="&lt;p style=&quot;line-height:1.38;margin-top:0pt;margin-bottom:0pt;&quot; dir=&quot;ltr&quot;&gt;&lt;/p&gt;&lt;div&gt;&lt;/div&gt;&lt;span id=&quot;docs-internal-guid-10aaa36b-7fff-0a55-26d9-2fcc0252b96f&quot;&gt;&lt;/span&gt;2 - email inválido&lt;br&gt;&lt;span id=&quot;docs-internal-guid-5f927523-7fff-8853-6be7-95d3d1e5f2d8&quot;&gt;&lt;/span&gt;" style="ellipse;whiteSpace=wrap;html=1;" parent="1" vertex="1">
          <mxGeometry x="280" y="1090" width="200" height="60" as="geometry" />
        </mxCell>
        <mxCell id="obsh2RYLg5jSwEAVxkv_-4" value="&lt;p style=&quot;line-height:1.38;margin-top:0pt;margin-bottom:0pt;&quot; dir=&quot;ltr&quot;&gt;&lt;/p&gt;&lt;div&gt;&lt;/div&gt;&lt;span id=&quot;docs-internal-guid-10aaa36b-7fff-0a55-26d9-2fcc0252b96f&quot;&gt;&lt;/span&gt;3 - falha no envio&lt;br&gt;&lt;span id=&quot;docs-internal-guid-5f927523-7fff-8853-6be7-95d3d1e5f2d8&quot;&gt;&lt;/span&gt;" style="ellipse;whiteSpace=wrap;html=1;" parent="1" vertex="1">
          <mxGeometry x="280" y="1160" width="200" height="60" as="geometry" />
        </mxCell>
        <mxCell id="obsh2RYLg5jSwEAVxkv_-5" value="&lt;p style=&quot;line-height:1.38;margin-top:0pt;margin-bottom:0pt;&quot; dir=&quot;ltr&quot;&gt;&lt;/p&gt;&lt;div&gt;&lt;/div&gt;&lt;span id=&quot;docs-internal-guid-10aaa36b-7fff-0a55-26d9-2fcc0252b96f&quot;&gt;&lt;/span&gt;4 - gerar pdf&lt;br&gt;&lt;span id=&quot;docs-internal-guid-5f927523-7fff-8853-6be7-95d3d1e5f2d8&quot;&gt;&lt;/span&gt;" style="ellipse;whiteSpace=wrap;html=1;" parent="1" vertex="1">
          <mxGeometry x="280" y="1230" width="200" height="60" as="geometry" />
        </mxCell>
        <mxCell id="obsh2RYLg5jSwEAVxkv_-6" value="&lt;p style=&quot;line-height:1.38;margin-top:0pt;margin-bottom:0pt;&quot; dir=&quot;ltr&quot;&gt;&lt;/p&gt;&lt;div&gt;&lt;/div&gt;&lt;span id=&quot;docs-internal-guid-10aaa36b-7fff-0a55-26d9-2fcc0252b96f&quot;&gt;&lt;/span&gt;5 - informar débitos para o cartório&lt;br&gt;&lt;span id=&quot;docs-internal-guid-5f927523-7fff-8853-6be7-95d3d1e5f2d8&quot;&gt;&lt;/span&gt;" style="ellipse;whiteSpace=wrap;html=1;" parent="1" vertex="1">
          <mxGeometry x="280" y="1300" width="200" height="60" as="geometry" />
        </mxCell>
        <mxCell id="obsh2RYLg5jSwEAVxkv_-7" value="&lt;p style=&quot;line-height:1.38;margin-top:0pt;margin-bottom:0pt;&quot; dir=&quot;ltr&quot;&gt;&lt;/p&gt;&lt;div&gt;&lt;/div&gt;&lt;span id=&quot;docs-internal-guid-10aaa36b-7fff-0a55-26d9-2fcc0252b96f&quot;&gt;&lt;/span&gt;6 - sem boletos a serem notificados&lt;br&gt;&lt;span id=&quot;docs-internal-guid-5f927523-7fff-8853-6be7-95d3d1e5f2d8&quot;&gt;&lt;/span&gt;" style="ellipse;whiteSpace=wrap;html=1;" parent="1" vertex="1">
          <mxGeometry x="280" y="1370" width="200" height="60" as="geometry" />
        </mxCell>
        <mxCell id="obsh2RYLg5jSwEAVxkv_-8" value="" style="endArrow=classic;html=1;rounded=0;exitX=1;exitY=0.5;exitDx=0;exitDy=0;entryX=0;entryY=0.5;entryDx=0;entryDy=0;" parent="1" source="obsh2RYLg5jSwEAVxkv_-1" target="obsh2RYLg5jSwEAVxkv_-2" edge="1">
          <mxGeometry width="50" height="50" relative="1" as="geometry">
            <mxPoint x="240" y="1120" as="sourcePoint" />
            <mxPoint x="300" y="1230" as="targetPoint" />
          </mxGeometry>
        </mxCell>
        <mxCell id="obsh2RYLg5jSwEAVxkv_-9" value="" style="endArrow=classic;html=1;rounded=0;exitX=1;exitY=0.5;exitDx=0;exitDy=0;" parent="1" source="obsh2RYLg5jSwEAVxkv_-1" target="obsh2RYLg5jSwEAVxkv_-3" edge="1">
          <mxGeometry width="50" height="50" relative="1" as="geometry">
            <mxPoint x="240" y="1130" as="sourcePoint" />
            <mxPoint x="300" y="1060" as="targetPoint" />
          </mxGeometry>
        </mxCell>
        <mxCell id="obsh2RYLg5jSwEAVxkv_-10" value="" style="endArrow=classic;html=1;rounded=0;exitX=1;exitY=0.5;exitDx=0;exitDy=0;entryX=0;entryY=0.5;entryDx=0;entryDy=0;" parent="1" source="obsh2RYLg5jSwEAVxkv_-1" target="obsh2RYLg5jSwEAVxkv_-4" edge="1">
          <mxGeometry width="50" height="50" relative="1" as="geometry">
            <mxPoint x="240" y="1130" as="sourcePoint" />
            <mxPoint x="290" y="1130" as="targetPoint" />
          </mxGeometry>
        </mxCell>
        <mxCell id="obsh2RYLg5jSwEAVxkv_-11" value="" style="endArrow=classic;html=1;rounded=0;entryX=0;entryY=0.5;entryDx=0;entryDy=0;exitX=1;exitY=0.5;exitDx=0;exitDy=0;" parent="1" source="obsh2RYLg5jSwEAVxkv_-1" target="obsh2RYLg5jSwEAVxkv_-5" edge="1">
          <mxGeometry width="50" height="50" relative="1" as="geometry">
            <mxPoint x="230" y="1120" as="sourcePoint" />
            <mxPoint x="280" y="1225" as="targetPoint" />
          </mxGeometry>
        </mxCell>
        <mxCell id="obsh2RYLg5jSwEAVxkv_-12" value="" style="endArrow=classic;html=1;rounded=0;entryX=0;entryY=0.5;entryDx=0;entryDy=0;exitX=1;exitY=0.5;exitDx=0;exitDy=0;" parent="1" source="obsh2RYLg5jSwEAVxkv_-1" target="obsh2RYLg5jSwEAVxkv_-6" edge="1">
          <mxGeometry width="50" height="50" relative="1" as="geometry">
            <mxPoint x="230" y="1120" as="sourcePoint" />
            <mxPoint x="280" y="1290" as="targetPoint" />
          </mxGeometry>
        </mxCell>
        <mxCell id="obsh2RYLg5jSwEAVxkv_-13" value="" style="endArrow=classic;html=1;rounded=0;entryX=0;entryY=0.5;entryDx=0;entryDy=0;exitX=0.958;exitY=0.375;exitDx=0;exitDy=0;exitPerimeter=0;" parent="1" source="obsh2RYLg5jSwEAVxkv_-1" target="obsh2RYLg5jSwEAVxkv_-7" edge="1">
          <mxGeometry width="50" height="50" relative="1" as="geometry">
            <mxPoint x="230" y="1120" as="sourcePoint" />
            <mxPoint x="270" y="1370" as="targetPoint" />
          </mxGeometry>
        </mxCell>
        <mxCell id="obsh2RYLg5jSwEAVxkv_-14" value="UCS05 - manter pagamentos" style="shape=hexagon;perimeter=hexagonPerimeter2;whiteSpace=wrap;html=1;fixedSize=1;size=20;" parent="1" vertex="1">
          <mxGeometry x="570" y="100" width="120" height="80" as="geometry" />
        </mxCell>
        <mxCell id="obsh2RYLg5jSwEAVxkv_-15" value="01 - valor acima de R$ 10 mil" style="ellipse;whiteSpace=wrap;html=1;container=1;" parent="1" vertex="1">
          <mxGeometry x="780" y="10" width="200" height="60" as="geometry">
            <mxRectangle x="780" y="10" width="200" height="30" as="alternateBounds" />
          </mxGeometry>
        </mxCell>
        <mxCell id="obsh2RYLg5jSwEAVxkv_-16" value="02 - valor acima de R$ 30 mil" style="ellipse;whiteSpace=wrap;html=1;container=1;" parent="1" vertex="1">
          <mxGeometry x="780" y="80" width="200" height="60" as="geometry" />
        </mxCell>
        <mxCell id="obsh2RYLg5jSwEAVxkv_-17" value="03 - consultar fatura paga" style="ellipse;whiteSpace=wrap;html=1;container=1;" parent="1" vertex="1">
          <mxGeometry x="780" y="150" width="200" height="60" as="geometry" />
        </mxCell>
        <mxCell id="obsh2RYLg5jSwEAVxkv_-18" value="04 - erro no pagamento" style="ellipse;whiteSpace=wrap;html=1;container=1;" parent="1" vertex="1">
          <mxGeometry x="780" y="220" width="200" height="60" as="geometry" />
        </mxCell>
        <mxCell id="obsh2RYLg5jSwEAVxkv_-19" value="05 - atualizar dados da fatura" style="ellipse;whiteSpace=wrap;html=1;container=1;" parent="1" vertex="1">
          <mxGeometry x="780" y="290" width="200" height="60" as="geometry" />
        </mxCell>
        <mxCell id="obsh2RYLg5jSwEAVxkv_-20" value="06 - inativar fatura" style="ellipse;whiteSpace=wrap;html=1;container=1;" parent="1" vertex="1">
          <mxGeometry x="780" y="360" width="200" height="60" as="geometry" />
        </mxCell>
        <mxCell id="obsh2RYLg5jSwEAVxkv_-21" value="07 - parâmetros inválidos" style="ellipse;whiteSpace=wrap;html=1;container=1;" parent="1" vertex="1">
          <mxGeometry x="780" y="430" width="200" height="60" as="geometry" />
        </mxCell>
        <mxCell id="obsh2RYLg5jSwEAVxkv_-22" value="" style="endArrow=classic;html=1;rounded=0;exitX=1;exitY=0.5;exitDx=0;exitDy=0;entryX=0;entryY=0.5;entryDx=0;entryDy=0;" parent="1" source="obsh2RYLg5jSwEAVxkv_-14" target="obsh2RYLg5jSwEAVxkv_-15" edge="1">
          <mxGeometry width="50" height="50" relative="1" as="geometry">
            <mxPoint x="705" y="190" as="sourcePoint" />
            <mxPoint x="795" y="270" as="targetPoint" />
          </mxGeometry>
        </mxCell>
        <mxCell id="obsh2RYLg5jSwEAVxkv_-23" value="" style="endArrow=classic;html=1;rounded=0;entryX=0;entryY=0.5;entryDx=0;entryDy=0;exitX=1;exitY=0.5;exitDx=0;exitDy=0;" parent="1" source="obsh2RYLg5jSwEAVxkv_-14" target="obsh2RYLg5jSwEAVxkv_-16" edge="1">
          <mxGeometry width="50" height="50" relative="1" as="geometry">
            <mxPoint x="710" y="140" as="sourcePoint" />
            <mxPoint x="790" y="50" as="targetPoint" />
          </mxGeometry>
        </mxCell>
        <mxCell id="obsh2RYLg5jSwEAVxkv_-24" value="" style="endArrow=classic;html=1;rounded=0;entryX=0;entryY=0.5;entryDx=0;entryDy=0;exitX=1;exitY=0.5;exitDx=0;exitDy=0;" parent="1" source="obsh2RYLg5jSwEAVxkv_-14" target="obsh2RYLg5jSwEAVxkv_-17" edge="1">
          <mxGeometry width="50" height="50" relative="1" as="geometry">
            <mxPoint x="715" y="150" as="sourcePoint" />
            <mxPoint x="790" y="120" as="targetPoint" />
          </mxGeometry>
        </mxCell>
        <mxCell id="obsh2RYLg5jSwEAVxkv_-25" value="" style="endArrow=classic;html=1;rounded=0;entryX=0;entryY=0.5;entryDx=0;entryDy=0;exitX=1;exitY=0.5;exitDx=0;exitDy=0;" parent="1" source="obsh2RYLg5jSwEAVxkv_-14" target="obsh2RYLg5jSwEAVxkv_-18" edge="1">
          <mxGeometry width="50" height="50" relative="1" as="geometry">
            <mxPoint x="690" y="210" as="sourcePoint" />
            <mxPoint x="765" y="250" as="targetPoint" />
          </mxGeometry>
        </mxCell>
        <mxCell id="obsh2RYLg5jSwEAVxkv_-26" value="" style="endArrow=classic;html=1;rounded=0;entryX=0;entryY=0.5;entryDx=0;entryDy=0;exitX=1;exitY=0.5;exitDx=0;exitDy=0;" parent="1" source="obsh2RYLg5jSwEAVxkv_-14" target="obsh2RYLg5jSwEAVxkv_-19" edge="1">
          <mxGeometry width="50" height="50" relative="1" as="geometry">
            <mxPoint x="705" y="200" as="sourcePoint" />
            <mxPoint x="780" y="310" as="targetPoint" />
          </mxGeometry>
        </mxCell>
        <mxCell id="obsh2RYLg5jSwEAVxkv_-27" value="" style="endArrow=classic;html=1;rounded=0;entryX=0;entryY=0.35;entryDx=0;entryDy=0;exitX=1;exitY=0.5;exitDx=0;exitDy=0;entryPerimeter=0;" parent="1" source="obsh2RYLg5jSwEAVxkv_-14" target="obsh2RYLg5jSwEAVxkv_-20" edge="1">
          <mxGeometry width="50" height="50" relative="1" as="geometry">
            <mxPoint x="710" y="140" as="sourcePoint" />
            <mxPoint x="765" y="370" as="targetPoint" />
          </mxGeometry>
        </mxCell>
        <mxCell id="obsh2RYLg5jSwEAVxkv_-28" value="" style="endArrow=classic;html=1;rounded=0;entryX=0;entryY=0.333;entryDx=0;entryDy=0;entryPerimeter=0;exitX=1;exitY=0.5;exitDx=0;exitDy=0;" parent="1" source="obsh2RYLg5jSwEAVxkv_-14" target="obsh2RYLg5jSwEAVxkv_-21" edge="1">
          <mxGeometry width="50" height="50" relative="1" as="geometry">
            <mxPoint x="710" y="150" as="sourcePoint" />
            <mxPoint x="770" y="466.48" as="targetPoint" />
          </mxGeometry>
        </mxCell>
        <mxCell id="obsh2RYLg5jSwEAVxkv_-29" value="08 - consulta sem retorno" style="ellipse;whiteSpace=wrap;html=1;container=1;" parent="1" vertex="1">
          <mxGeometry x="780" y="500" width="200" height="60" as="geometry" />
        </mxCell>
        <mxCell id="obsh2RYLg5jSwEAVxkv_-30" value="09 - pagamento já cadastrado" style="ellipse;whiteSpace=wrap;html=1;container=1;" parent="1" vertex="1">
          <mxGeometry x="780" y="570" width="200" height="60" as="geometry" />
        </mxCell>
        <mxCell id="obsh2RYLg5jSwEAVxkv_-31" value="" style="endArrow=classic;html=1;rounded=0;entryX=-0.01;entryY=0.383;entryDx=0;entryDy=0;entryPerimeter=0;exitX=1;exitY=0.5;exitDx=0;exitDy=0;" parent="1" source="obsh2RYLg5jSwEAVxkv_-14" target="obsh2RYLg5jSwEAVxkv_-29" edge="1">
          <mxGeometry width="50" height="50" relative="1" as="geometry">
            <mxPoint x="670" y="237" as="sourcePoint" />
            <mxPoint x="738" y="540" as="targetPoint" />
          </mxGeometry>
        </mxCell>
        <mxCell id="obsh2RYLg5jSwEAVxkv_-32" value="" style="endArrow=classic;html=1;rounded=0;exitX=1;exitY=0.5;exitDx=0;exitDy=0;entryX=0;entryY=0.5;entryDx=0;entryDy=0;" parent="1" source="obsh2RYLg5jSwEAVxkv_-14" target="obsh2RYLg5jSwEAVxkv_-30" edge="1">
          <mxGeometry width="50" height="50" relative="1" as="geometry">
            <mxPoint x="650" y="350" as="sourcePoint" />
            <mxPoint x="740" y="430" as="targetPoint" />
          </mxGeometry>
        </mxCell>
        <mxCell id="XZTk7ndqrP5DNF2iQTdr-1" value="UCS06 - gerar boletos" style="shape=hexagon;perimeter=hexagonPerimeter2;whiteSpace=wrap;html=1;fixedSize=1;size=20;" parent="1" vertex="1">
          <mxGeometry x="580" y="870" width="120" height="80" as="geometry" />
        </mxCell>
        <mxCell id="XZTk7ndqrP5DNF2iQTdr-2" value="01 - falha na comunicação com a API do banco do Brasil" style="ellipse;whiteSpace=wrap;html=1;container=1;" parent="1" vertex="1">
          <mxGeometry x="780" y="707" width="200" height="60" as="geometry" />
        </mxCell>
        <mxCell id="XZTk7ndqrP5DNF2iQTdr-3" value="02 - parâmetros inválidos" style="ellipse;whiteSpace=wrap;html=1;container=1;" parent="1" vertex="1">
          <mxGeometry x="780" y="767" width="200" height="60" as="geometry" />
        </mxCell>
        <mxCell id="XZTk7ndqrP5DNF2iQTdr-4" value="03 - gerar boletos em lote" style="ellipse;whiteSpace=wrap;html=1;container=1;" parent="1" vertex="1">
          <mxGeometry x="780" y="830" width="200" height="60" as="geometry" />
        </mxCell>
        <mxCell id="XZTk7ndqrP5DNF2iQTdr-5" value="04 - e-mail inválido do morador" style="ellipse;whiteSpace=wrap;html=1;container=1;" parent="1" vertex="1">
          <mxGeometry x="780" y="900" width="200" height="60" as="geometry" />
        </mxCell>
        <mxCell id="XZTk7ndqrP5DNF2iQTdr-6" value="" style="endArrow=classic;html=1;rounded=0;exitX=1;exitY=0.5;exitDx=0;exitDy=0;entryX=0;entryY=0.5;entryDx=0;entryDy=0;" parent="1" target="XZTk7ndqrP5DNF2iQTdr-2" edge="1">
          <mxGeometry width="50" height="50" relative="1" as="geometry">
            <mxPoint x="697.5" y="910" as="sourcePoint" />
            <mxPoint x="780" y="770" as="targetPoint" />
          </mxGeometry>
        </mxCell>
        <mxCell id="XZTk7ndqrP5DNF2iQTdr-7" value="" style="endArrow=classic;html=1;rounded=0;exitX=1;exitY=0.5;exitDx=0;exitDy=0;entryX=0.018;entryY=0.4;entryDx=0;entryDy=0;entryPerimeter=0;" parent="1" target="XZTk7ndqrP5DNF2iQTdr-3" edge="1">
          <mxGeometry width="50" height="50" relative="1" as="geometry">
            <mxPoint x="697.5" y="910" as="sourcePoint" />
            <mxPoint x="790" y="720" as="targetPoint" />
          </mxGeometry>
        </mxCell>
        <mxCell id="XZTk7ndqrP5DNF2iQTdr-8" value="" style="endArrow=classic;html=1;rounded=0;exitX=1;exitY=0.5;exitDx=0;exitDy=0;entryX=0;entryY=0.5;entryDx=0;entryDy=0;" parent="1" target="XZTk7ndqrP5DNF2iQTdr-4" edge="1">
          <mxGeometry width="50" height="50" relative="1" as="geometry">
            <mxPoint x="697.5" y="910" as="sourcePoint" />
            <mxPoint x="788" y="807" as="targetPoint" />
          </mxGeometry>
        </mxCell>
        <mxCell id="XZTk7ndqrP5DNF2iQTdr-9" value="" style="endArrow=classic;html=1;rounded=0;exitX=1;exitY=0.5;exitDx=0;exitDy=0;entryX=0;entryY=0.5;entryDx=0;entryDy=0;" parent="1" target="XZTk7ndqrP5DNF2iQTdr-5" edge="1">
          <mxGeometry width="50" height="50" relative="1" as="geometry">
            <mxPoint x="697.5" y="910" as="sourcePoint" />
            <mxPoint x="780" y="910" as="targetPoint" />
          </mxGeometry>
        </mxCell>
        <mxCell id="VwWypTllNR4ZQ3KMKFlS-2" value="UCS07 - gerar 2ª via de boleto" style="shape=hexagon;perimeter=hexagonPerimeter2;whiteSpace=wrap;html=1;fixedSize=1;size=20;" parent="1" vertex="1">
          <mxGeometry x="580" y="1240" width="120" height="80" as="geometry" />
        </mxCell>
        <mxCell id="VwWypTllNR4ZQ3KMKFlS-3" value="01 - parâmetros inválidos" style="ellipse;whiteSpace=wrap;html=1;container=1;" parent="1" vertex="1">
          <mxGeometry x="772.5" y="1210" width="200" height="60" as="geometry" />
        </mxCell>
        <mxCell id="VwWypTllNR4ZQ3KMKFlS-4" value="02 - erro de comuinicação" style="ellipse;whiteSpace=wrap;html=1;container=1;" parent="1" vertex="1">
          <mxGeometry x="772.5" y="1300" width="200" height="60" as="geometry" />
        </mxCell>
        <mxCell id="VwWypTllNR4ZQ3KMKFlS-5" value="" style="endArrow=classic;html=1;rounded=0;exitX=1;exitY=0.5;exitDx=0;exitDy=0;entryX=0;entryY=0.5;entryDx=0;entryDy=0;" parent="1" source="VwWypTllNR4ZQ3KMKFlS-2" target="VwWypTllNR4ZQ3KMKFlS-3" edge="1">
          <mxGeometry width="50" height="50" relative="1" as="geometry">
            <mxPoint x="712.5" y="1300" as="sourcePoint" />
            <mxPoint x="772.5" y="1170" as="targetPoint" />
          </mxGeometry>
        </mxCell>
        <mxCell id="VwWypTllNR4ZQ3KMKFlS-6" value="" style="endArrow=classic;html=1;rounded=0;exitX=1;exitY=0.5;exitDx=0;exitDy=0;entryX=0;entryY=0.5;entryDx=0;entryDy=0;" parent="1" source="VwWypTllNR4ZQ3KMKFlS-2" target="VwWypTllNR4ZQ3KMKFlS-4" edge="1">
          <mxGeometry width="50" height="50" relative="1" as="geometry">
            <mxPoint x="712.5" y="1300" as="sourcePoint" />
            <mxPoint x="782.5" y="1180" as="targetPoint" />
          </mxGeometry>
        </mxCell>
        <mxCell id="VwWypTllNR4ZQ3KMKFlS-7" value="UCS08 - gerar informações de boleto" style="shape=hexagon;perimeter=hexagonPerimeter2;whiteSpace=wrap;html=1;fixedSize=1;size=20;" parent="1" vertex="1">
          <mxGeometry x="585" y="1400" width="120" height="80" as="geometry" />
        </mxCell>
        <mxCell id="q7S6g3ghekBMeXwdsHlg-1" value="01 - falha na validação das informações" style="ellipse;whiteSpace=wrap;html=1;container=1;" parent="1" vertex="1">
          <mxGeometry x="762.5" y="1380" width="200" height="60" as="geometry" />
        </mxCell>
        <mxCell id="q7S6g3ghekBMeXwdsHlg-2" value="02 - erro na geração das informações" style="ellipse;whiteSpace=wrap;html=1;container=1;" parent="1" vertex="1">
          <mxGeometry x="762.5" y="1460" width="200" height="60" as="geometry" />
        </mxCell>
        <mxCell id="q7S6g3ghekBMeXwdsHlg-3" value="" style="endArrow=classic;html=1;rounded=0;exitX=1;exitY=0.5;exitDx=0;exitDy=0;entryX=0;entryY=0.5;entryDx=0;entryDy=0;" parent="1" source="VwWypTllNR4ZQ3KMKFlS-7" target="q7S6g3ghekBMeXwdsHlg-1" edge="1">
          <mxGeometry width="50" height="50" relative="1" as="geometry">
            <mxPoint x="712.5" y="1440" as="sourcePoint" />
            <mxPoint x="792.5" y="1320" as="targetPoint" />
          </mxGeometry>
        </mxCell>
        <mxCell id="q7S6g3ghekBMeXwdsHlg-4" value="" style="endArrow=classic;html=1;rounded=0;exitX=1;exitY=0.5;exitDx=0;exitDy=0;entryX=0;entryY=0.5;entryDx=0;entryDy=0;" parent="1" source="VwWypTllNR4ZQ3KMKFlS-7" target="q7S6g3ghekBMeXwdsHlg-2" edge="1">
          <mxGeometry width="50" height="50" relative="1" as="geometry">
            <mxPoint x="712.5" y="1440" as="sourcePoint" />
            <mxPoint x="762.5" y="1410" as="targetPoint" />
          </mxGeometry>
        </mxCell>
        <mxCell id="y91t_Wlgq6qEnDWQ_5Mc-1" value="05 - projetar despesas;" style="ellipse;whiteSpace=wrap;html=1;container=1;" parent="1" vertex="1">
          <mxGeometry x="772.5" y="980" width="200" height="60" as="geometry" />
        </mxCell>
        <mxCell id="y91t_Wlgq6qEnDWQ_5Mc-3" value="" style="endArrow=classic;html=1;rounded=0;exitX=1;exitY=0.5;exitDx=0;exitDy=0;entryX=0;entryY=0.5;entryDx=0;entryDy=0;" parent="1" target="y91t_Wlgq6qEnDWQ_5Mc-1" edge="1">
          <mxGeometry width="50" height="50" relative="1" as="geometry">
            <mxPoint x="697.5" y="910" as="sourcePoint" />
            <mxPoint x="772.5" y="1013" as="targetPoint" />
          </mxGeometry>
        </mxCell>
        <mxCell id="Zf_xAGUanWeLmzyNZUqG-1" value="06 - boletos pagos;" style="ellipse;whiteSpace=wrap;html=1;container=1;" parent="1" vertex="1">
          <mxGeometry x="772.5" y="1050" width="200" height="60" as="geometry" />
        </mxCell>
        <mxCell id="Zf_xAGUanWeLmzyNZUqG-2" value="" style="endArrow=classic;html=1;rounded=0;exitX=1;exitY=0.5;exitDx=0;exitDy=0;entryX=0;entryY=0.4;entryDx=0;entryDy=0;entryPerimeter=0;" parent="1" target="Zf_xAGUanWeLmzyNZUqG-1" edge="1">
          <mxGeometry width="50" height="50" relative="1" as="geometry">
            <mxPoint x="697.5" y="910" as="sourcePoint" />
            <mxPoint x="782.5" y="1020" as="targetPoint" />
          </mxGeometry>
        </mxCell>
        <mxCell id="Zf_xAGUanWeLmzyNZUqG-3" value="07 - boletos vencidos sem pagamento" style="ellipse;whiteSpace=wrap;html=1;container=1;" parent="1" vertex="1">
          <mxGeometry x="772.5" y="1120" width="200" height="60" as="geometry" />
        </mxCell>
        <mxCell id="Zf_xAGUanWeLmzyNZUqG-4" value="" style="endArrow=classic;html=1;rounded=0;exitX=1;exitY=0.5;exitDx=0;exitDy=0;entryX=0;entryY=0.5;entryDx=0;entryDy=0;" parent="1" target="Zf_xAGUanWeLmzyNZUqG-3" edge="1">
          <mxGeometry width="50" height="50" relative="1" as="geometry">
            <mxPoint x="697.5" y="910" as="sourcePoint" />
            <mxPoint x="782.5" y="1084" as="targetPoint" />
          </mxGeometry>
        </mxCell>
        <mxCell id="YouB92ujSV_mGMAJtpJH-1" value="&lt;p style=&quot;line-height:1.38;margin-top:0pt;margin-bottom:0pt;&quot; dir=&quot;ltr&quot;&gt;&lt;/p&gt;&lt;div&gt;&lt;/div&gt;&lt;span id=&quot;docs-internal-guid-10aaa36b-7fff-0a55-26d9-2fcc0252b96f&quot;&gt;&lt;/span&gt;7 - enviar para cobrança judicial&lt;br&gt;&lt;span id=&quot;docs-internal-guid-5f927523-7fff-8853-6be7-95d3d1e5f2d8&quot;&gt;&lt;/span&gt;" style="ellipse;whiteSpace=wrap;html=1;" vertex="1" parent="1">
          <mxGeometry x="280" y="1440" width="200" height="60" as="geometry" />
        </mxCell>
        <mxCell id="YouB92ujSV_mGMAJtpJH-2" value="" style="endArrow=classic;html=1;rounded=0;entryX=0;entryY=0.5;entryDx=0;entryDy=0;exitX=1;exitY=0.5;exitDx=0;exitDy=0;" edge="1" parent="1" source="obsh2RYLg5jSwEAVxkv_-1" target="YouB92ujSV_mGMAJtpJH-1">
          <mxGeometry width="50" height="50" relative="1" as="geometry">
            <mxPoint x="180" y="1220" as="sourcePoint" />
            <mxPoint x="290" y="1410" as="targetPoint" />
          </mxGeometry>
        </mxCell>
        <mxCell id="JXmTFLtllzkqmp3NWu9M-1" value="10 - vencimento com menos de 5 dias" style="ellipse;whiteSpace=wrap;html=1;container=1;" vertex="1" parent="1">
          <mxGeometry x="772.5" y="637" width="200" height="60" as="geometry" />
        </mxCell>
        <mxCell id="JXmTFLtllzkqmp3NWu9M-2" value="" style="endArrow=classic;html=1;rounded=0;exitX=1;exitY=0.5;exitDx=0;exitDy=0;entryX=0;entryY=0.5;entryDx=0;entryDy=0;" edge="1" parent="1" source="obsh2RYLg5jSwEAVxkv_-14" target="JXmTFLtllzkqmp3NWu9M-1">
          <mxGeometry width="50" height="50" relative="1" as="geometry">
            <mxPoint x="672.5" y="200" as="sourcePoint" />
            <mxPoint x="762.5" y="660" as="targetPoint" />
          </mxGeometry>
        </mxCell>
      </root>
    </mxGraphModel>
  </diagram>
  <diagram id="ahvXIZWNQ3ED286FbKtI" name="fluxo alternativo (9 - 15)">
    <mxGraphModel dx="1674" dy="844" grid="1" gridSize="10" guides="1" tooltips="1" connect="1" arrows="1" fold="1" page="1" pageScale="1" pageWidth="1169" pageHeight="1654" math="0" shadow="0">
      <root>
        <mxCell id="0" />
        <mxCell id="1" parent="0" />
        <mxCell id="Wm24sXcdbeSWEP2yBdW7-1" value="UCS09 - manter fornecedores" style="shape=hexagon;perimeter=hexagonPerimeter2;whiteSpace=wrap;html=1;fixedSize=1;" parent="1" vertex="1">
          <mxGeometry x="80" y="150" width="120" height="80" as="geometry" />
        </mxCell>
        <mxCell id="KqN83p3U5o2YSXVt-zbk-1" value="01 - consultar fornecedor" style="ellipse;whiteSpace=wrap;html=1;" parent="1" vertex="1">
          <mxGeometry x="320" y="20" width="200" height="60" as="geometry" />
        </mxCell>
        <mxCell id="ciMrpWFPhqiUyqnA7j1h-1" value="" style="endArrow=classic;html=1;rounded=0;entryX=0;entryY=0.5;entryDx=0;entryDy=0;exitX=1;exitY=0.5;exitDx=0;exitDy=0;" parent="1" source="Wm24sXcdbeSWEP2yBdW7-1" target="KqN83p3U5o2YSXVt-zbk-1" edge="1">
          <mxGeometry width="50" height="50" relative="1" as="geometry">
            <mxPoint x="230" y="130" as="sourcePoint" />
            <mxPoint x="330" y="70" as="targetPoint" />
          </mxGeometry>
        </mxCell>
        <mxCell id="ciMrpWFPhqiUyqnA7j1h-2" value="02 - inativar fornecedor" style="ellipse;whiteSpace=wrap;html=1;" parent="1" vertex="1">
          <mxGeometry x="320" y="90" width="200" height="60" as="geometry" />
        </mxCell>
        <mxCell id="ciMrpWFPhqiUyqnA7j1h-3" value="03 - alterar dados do fornecedor&amp;nbsp;" style="ellipse;whiteSpace=wrap;html=1;" parent="1" vertex="1">
          <mxGeometry x="320" y="160" width="200" height="60" as="geometry" />
        </mxCell>
        <mxCell id="ciMrpWFPhqiUyqnA7j1h-4" value="04 - parâmetros inválidos" style="ellipse;whiteSpace=wrap;html=1;" parent="1" vertex="1">
          <mxGeometry x="320" y="230" width="200" height="60" as="geometry" />
        </mxCell>
        <mxCell id="ciMrpWFPhqiUyqnA7j1h-5" value="05 - fornecedor já cadastrado" style="ellipse;whiteSpace=wrap;html=1;" parent="1" vertex="1">
          <mxGeometry x="320" y="310" width="200" height="60" as="geometry" />
        </mxCell>
        <mxCell id="ciMrpWFPhqiUyqnA7j1h-6" value="06 - sem retorno de informação" style="ellipse;whiteSpace=wrap;html=1;" parent="1" vertex="1">
          <mxGeometry x="320" y="390" width="200" height="60" as="geometry" />
        </mxCell>
        <mxCell id="ciMrpWFPhqiUyqnA7j1h-7" value="" style="endArrow=classic;html=1;rounded=0;entryX=0;entryY=0.5;entryDx=0;entryDy=0;exitX=1;exitY=0.5;exitDx=0;exitDy=0;" parent="1" source="Wm24sXcdbeSWEP2yBdW7-1" target="ciMrpWFPhqiUyqnA7j1h-2" edge="1">
          <mxGeometry width="50" height="50" relative="1" as="geometry">
            <mxPoint x="240" y="140" as="sourcePoint" />
            <mxPoint x="330" y="60" as="targetPoint" />
          </mxGeometry>
        </mxCell>
        <mxCell id="ciMrpWFPhqiUyqnA7j1h-8" value="" style="endArrow=classic;html=1;rounded=0;entryX=0;entryY=0.5;entryDx=0;entryDy=0;exitX=1;exitY=0.5;exitDx=0;exitDy=0;" parent="1" source="Wm24sXcdbeSWEP2yBdW7-1" target="ciMrpWFPhqiUyqnA7j1h-3" edge="1">
          <mxGeometry width="50" height="50" relative="1" as="geometry">
            <mxPoint x="240" y="140" as="sourcePoint" />
            <mxPoint x="330" y="130" as="targetPoint" />
          </mxGeometry>
        </mxCell>
        <mxCell id="ciMrpWFPhqiUyqnA7j1h-9" value="" style="endArrow=classic;html=1;rounded=0;entryX=0;entryY=0.5;entryDx=0;entryDy=0;exitX=1;exitY=0.5;exitDx=0;exitDy=0;" parent="1" source="Wm24sXcdbeSWEP2yBdW7-1" target="ciMrpWFPhqiUyqnA7j1h-4" edge="1">
          <mxGeometry width="50" height="50" relative="1" as="geometry">
            <mxPoint x="220" y="200" as="sourcePoint" />
            <mxPoint x="330" y="200" as="targetPoint" />
          </mxGeometry>
        </mxCell>
        <mxCell id="ciMrpWFPhqiUyqnA7j1h-10" value="" style="endArrow=classic;html=1;rounded=0;entryX=0;entryY=0.5;entryDx=0;entryDy=0;exitX=1;exitY=0.5;exitDx=0;exitDy=0;" parent="1" source="Sve1ANbt6HYFOd19vbSn-1" target="Sve1ANbt6HYFOd19vbSn-6" edge="1">
          <mxGeometry width="50" height="50" relative="1" as="geometry">
            <mxPoint x="240" y="733.51" as="sourcePoint" />
            <mxPoint x="337" y="866.49" as="targetPoint" />
          </mxGeometry>
        </mxCell>
        <mxCell id="ciMrpWFPhqiUyqnA7j1h-11" value="" style="endArrow=classic;html=1;rounded=0;entryX=0;entryY=0.5;entryDx=0;entryDy=0;exitX=1;exitY=0.5;exitDx=0;exitDy=0;" parent="1" source="Wm24sXcdbeSWEP2yBdW7-1" target="ciMrpWFPhqiUyqnA7j1h-5" edge="1">
          <mxGeometry width="50" height="50" relative="1" as="geometry">
            <mxPoint x="240" y="230" as="sourcePoint" />
            <mxPoint x="337" y="363" as="targetPoint" />
          </mxGeometry>
        </mxCell>
        <mxCell id="ciMrpWFPhqiUyqnA7j1h-12" value="" style="endArrow=classic;html=1;rounded=0;entryX=0;entryY=0.5;entryDx=0;entryDy=0;exitX=1;exitY=0.5;exitDx=0;exitDy=0;" parent="1" source="Wm24sXcdbeSWEP2yBdW7-1" target="ciMrpWFPhqiUyqnA7j1h-6" edge="1">
          <mxGeometry width="50" height="50" relative="1" as="geometry">
            <mxPoint x="190" y="290" as="sourcePoint" />
            <mxPoint x="287" y="422.98" as="targetPoint" />
          </mxGeometry>
        </mxCell>
        <mxCell id="Sve1ANbt6HYFOd19vbSn-1" value="UCS10 - manter apartamentos" style="shape=hexagon;perimeter=hexagonPerimeter2;whiteSpace=wrap;html=1;fixedSize=1;" parent="1" vertex="1">
          <mxGeometry x="80" y="610" width="120" height="80" as="geometry" />
        </mxCell>
        <mxCell id="Sve1ANbt6HYFOd19vbSn-2" value="01 - consultar apartamento" style="ellipse;whiteSpace=wrap;html=1;" parent="1" vertex="1">
          <mxGeometry x="310" y="480" width="200" height="60" as="geometry" />
        </mxCell>
        <mxCell id="Sve1ANbt6HYFOd19vbSn-3" value="02 - inativar apartamento" style="ellipse;whiteSpace=wrap;html=1;" parent="1" vertex="1">
          <mxGeometry x="310" y="550" width="200" height="60" as="geometry" />
        </mxCell>
        <mxCell id="Sve1ANbt6HYFOd19vbSn-4" value="03 - alterar dados de apartamento" style="ellipse;whiteSpace=wrap;html=1;" parent="1" vertex="1">
          <mxGeometry x="310" y="620" width="200" height="60" as="geometry" />
        </mxCell>
        <mxCell id="Sve1ANbt6HYFOd19vbSn-5" value="04 - parâmetros inválidos" style="ellipse;whiteSpace=wrap;html=1;" parent="1" vertex="1">
          <mxGeometry x="310" y="690" width="200" height="60" as="geometry" />
        </mxCell>
        <mxCell id="Sve1ANbt6HYFOd19vbSn-6" value="05 - apartamento já cadastrado" style="ellipse;whiteSpace=wrap;html=1;" parent="1" vertex="1">
          <mxGeometry x="310" y="760" width="200" height="60" as="geometry" />
        </mxCell>
        <mxCell id="Sve1ANbt6HYFOd19vbSn-7" value="06 - sem retorno de informação" style="ellipse;whiteSpace=wrap;html=1;" parent="1" vertex="1">
          <mxGeometry x="310" y="830" width="200" height="60" as="geometry" />
        </mxCell>
        <mxCell id="Sve1ANbt6HYFOd19vbSn-8" value="" style="endArrow=classic;html=1;rounded=0;entryX=0;entryY=0.5;entryDx=0;entryDy=0;exitX=1;exitY=0.5;exitDx=0;exitDy=0;" parent="1" source="Sve1ANbt6HYFOd19vbSn-1" target="Sve1ANbt6HYFOd19vbSn-2" edge="1">
          <mxGeometry width="50" height="50" relative="1" as="geometry">
            <mxPoint x="250" y="650" as="sourcePoint" />
            <mxPoint x="347" y="782.98" as="targetPoint" />
          </mxGeometry>
        </mxCell>
        <mxCell id="Sve1ANbt6HYFOd19vbSn-9" value="" style="endArrow=classic;html=1;rounded=0;entryX=0;entryY=0.5;entryDx=0;entryDy=0;exitX=1;exitY=0.5;exitDx=0;exitDy=0;" parent="1" source="Sve1ANbt6HYFOd19vbSn-1" target="Sve1ANbt6HYFOd19vbSn-3" edge="1">
          <mxGeometry width="50" height="50" relative="1" as="geometry">
            <mxPoint x="213" y="733.51" as="sourcePoint" />
            <mxPoint x="310" y="866.49" as="targetPoint" />
          </mxGeometry>
        </mxCell>
        <mxCell id="Sve1ANbt6HYFOd19vbSn-10" value="" style="endArrow=classic;html=1;rounded=0;entryX=0;entryY=0.5;entryDx=0;entryDy=0;exitX=1;exitY=0.5;exitDx=0;exitDy=0;" parent="1" source="Sve1ANbt6HYFOd19vbSn-1" target="Sve1ANbt6HYFOd19vbSn-4" edge="1">
          <mxGeometry width="50" height="50" relative="1" as="geometry">
            <mxPoint x="230" y="777.02" as="sourcePoint" />
            <mxPoint x="327" y="910" as="targetPoint" />
          </mxGeometry>
        </mxCell>
        <mxCell id="Sve1ANbt6HYFOd19vbSn-11" value="" style="endArrow=classic;html=1;rounded=0;entryX=0;entryY=0.5;entryDx=0;entryDy=0;exitX=1;exitY=0.5;exitDx=0;exitDy=0;" parent="1" source="Sve1ANbt6HYFOd19vbSn-1" target="Sve1ANbt6HYFOd19vbSn-5" edge="1">
          <mxGeometry width="50" height="50" relative="1" as="geometry">
            <mxPoint x="240" y="760.51" as="sourcePoint" />
            <mxPoint x="337" y="893.49" as="targetPoint" />
          </mxGeometry>
        </mxCell>
        <mxCell id="Sve1ANbt6HYFOd19vbSn-13" value="" style="endArrow=classic;html=1;rounded=0;entryX=0;entryY=0.5;entryDx=0;entryDy=0;exitX=1;exitY=0.5;exitDx=0;exitDy=0;" parent="1" source="Sve1ANbt6HYFOd19vbSn-1" target="Sve1ANbt6HYFOd19vbSn-7" edge="1">
          <mxGeometry width="50" height="50" relative="1" as="geometry">
            <mxPoint x="210" y="790" as="sourcePoint" />
            <mxPoint x="307" y="922.98" as="targetPoint" />
          </mxGeometry>
        </mxCell>
        <mxCell id="klpjqXtWmZ-8evumb9kz-1" value="UCS11 - manter contrato" style="shape=hexagon;perimeter=hexagonPerimeter2;whiteSpace=wrap;html=1;fixedSize=1;" parent="1" vertex="1">
          <mxGeometry x="80" y="1220" width="120" height="80" as="geometry" />
        </mxCell>
        <mxCell id="klpjqXtWmZ-8evumb9kz-2" value="01 - consultar contrato" style="ellipse;whiteSpace=wrap;html=1;" parent="1" vertex="1">
          <mxGeometry x="300" y="950" width="200" height="60" as="geometry" />
        </mxCell>
        <mxCell id="klpjqXtWmZ-8evumb9kz-4" value="03 - alterar dados do contrato" style="ellipse;whiteSpace=wrap;html=1;" parent="1" vertex="1">
          <mxGeometry x="290" y="1090" width="200" height="60" as="geometry" />
        </mxCell>
        <mxCell id="klpjqXtWmZ-8evumb9kz-5" value="04 - inativar contrato" style="ellipse;whiteSpace=wrap;html=1;" parent="1" vertex="1">
          <mxGeometry x="290" y="1160" width="200" height="60" as="geometry" />
        </mxCell>
        <mxCell id="klpjqXtWmZ-8evumb9kz-6" value="05 - sem retorno de informação" style="ellipse;whiteSpace=wrap;html=1;" parent="1" vertex="1">
          <mxGeometry x="290" y="1230" width="200" height="60" as="geometry" />
        </mxCell>
        <mxCell id="klpjqXtWmZ-8evumb9kz-7" value="06 - parâmetros inválidos" style="ellipse;whiteSpace=wrap;html=1;" parent="1" vertex="1">
          <mxGeometry x="290" y="1300" width="200" height="60" as="geometry" />
        </mxCell>
        <mxCell id="klpjqXtWmZ-8evumb9kz-8" value="07 - armazenar contrato" style="ellipse;whiteSpace=wrap;html=1;" parent="1" vertex="1">
          <mxGeometry x="290" y="1370" width="200" height="60" as="geometry" />
        </mxCell>
        <mxCell id="klpjqXtWmZ-8evumb9kz-10" value="" style="endArrow=classic;html=1;rounded=0;entryX=0;entryY=0.5;entryDx=0;entryDy=0;exitX=1;exitY=0.5;exitDx=0;exitDy=0;" parent="1" source="klpjqXtWmZ-8evumb9kz-1" target="klpjqXtWmZ-8evumb9kz-2" edge="1">
          <mxGeometry width="50" height="50" relative="1" as="geometry">
            <mxPoint x="260" y="1130" as="sourcePoint" />
            <mxPoint x="340" y="1340" as="targetPoint" />
          </mxGeometry>
        </mxCell>
        <mxCell id="klpjqXtWmZ-8evumb9kz-11" value="" style="endArrow=classic;html=1;rounded=0;entryX=0.005;entryY=0.65;entryDx=0;entryDy=0;exitX=1;exitY=0.5;exitDx=0;exitDy=0;entryPerimeter=0;" parent="1" source="klpjqXtWmZ-8evumb9kz-1" target="klpjqXtWmZ-8evumb9kz-17" edge="1">
          <mxGeometry width="50" height="50" relative="1" as="geometry">
            <mxPoint x="229" y="1174" as="sourcePoint" />
            <mxPoint x="293" y="1059" as="targetPoint" />
          </mxGeometry>
        </mxCell>
        <mxCell id="klpjqXtWmZ-8evumb9kz-12" value="" style="endArrow=classic;html=1;rounded=0;entryX=0;entryY=0.5;entryDx=0;entryDy=0;exitX=1;exitY=0.5;exitDx=0;exitDy=0;" parent="1" source="klpjqXtWmZ-8evumb9kz-1" target="klpjqXtWmZ-8evumb9kz-4" edge="1">
          <mxGeometry width="50" height="50" relative="1" as="geometry">
            <mxPoint x="220" y="1180" as="sourcePoint" />
            <mxPoint x="303" y="1069" as="targetPoint" />
          </mxGeometry>
        </mxCell>
        <mxCell id="klpjqXtWmZ-8evumb9kz-13" value="" style="endArrow=classic;html=1;rounded=0;exitX=1;exitY=0.5;exitDx=0;exitDy=0;entryX=0;entryY=0.5;entryDx=0;entryDy=0;" parent="1" source="klpjqXtWmZ-8evumb9kz-1" target="klpjqXtWmZ-8evumb9kz-5" edge="1">
          <mxGeometry width="50" height="50" relative="1" as="geometry">
            <mxPoint x="220" y="1180" as="sourcePoint" />
            <mxPoint x="280" y="1190" as="targetPoint" />
          </mxGeometry>
        </mxCell>
        <mxCell id="klpjqXtWmZ-8evumb9kz-14" value="" style="endArrow=classic;html=1;rounded=0;exitX=1;exitY=0.5;exitDx=0;exitDy=0;entryX=0;entryY=0.5;entryDx=0;entryDy=0;" parent="1" source="klpjqXtWmZ-8evumb9kz-1" target="klpjqXtWmZ-8evumb9kz-6" edge="1">
          <mxGeometry width="50" height="50" relative="1" as="geometry">
            <mxPoint x="230" y="1190" as="sourcePoint" />
            <mxPoint x="290" y="1200" as="targetPoint" />
          </mxGeometry>
        </mxCell>
        <mxCell id="klpjqXtWmZ-8evumb9kz-15" value="" style="endArrow=classic;html=1;rounded=0;entryX=0;entryY=0.5;entryDx=0;entryDy=0;exitX=1;exitY=0.5;exitDx=0;exitDy=0;" parent="1" source="klpjqXtWmZ-8evumb9kz-1" target="klpjqXtWmZ-8evumb9kz-7" edge="1">
          <mxGeometry width="50" height="50" relative="1" as="geometry">
            <mxPoint x="220" y="1170" as="sourcePoint" />
            <mxPoint x="290" y="1340" as="targetPoint" />
          </mxGeometry>
        </mxCell>
        <mxCell id="klpjqXtWmZ-8evumb9kz-16" value="" style="endArrow=classic;html=1;rounded=0;entryX=0;entryY=0.5;entryDx=0;entryDy=0;exitX=1;exitY=0.5;exitDx=0;exitDy=0;" parent="1" source="klpjqXtWmZ-8evumb9kz-1" target="klpjqXtWmZ-8evumb9kz-8" edge="1">
          <mxGeometry width="50" height="50" relative="1" as="geometry">
            <mxPoint x="230" y="1180" as="sourcePoint" />
            <mxPoint x="300" y="1340" as="targetPoint" />
          </mxGeometry>
        </mxCell>
        <mxCell id="klpjqXtWmZ-8evumb9kz-17" value="02 - contrato ja cadastrado" style="ellipse;whiteSpace=wrap;html=1;" parent="1" vertex="1">
          <mxGeometry x="300" y="1020" width="200" height="60" as="geometry" />
        </mxCell>
        <mxCell id="klpjqXtWmZ-8evumb9kz-18" value="UCS12 - rescindir contrato" style="shape=hexagon;perimeter=hexagonPerimeter2;whiteSpace=wrap;html=1;fixedSize=1;" parent="1" vertex="1">
          <mxGeometry x="610" y="50" width="120" height="80" as="geometry" />
        </mxCell>
        <mxCell id="klpjqXtWmZ-8evumb9kz-19" value="01 - dados errados da pesquisa" style="ellipse;whiteSpace=wrap;html=1;" parent="1" vertex="1">
          <mxGeometry x="840" y="10" width="200" height="60" as="geometry" />
        </mxCell>
        <mxCell id="Cwk6Fm1p2NDWb4YnVhiN-1" value="02 - parâmetros inválidos" style="ellipse;whiteSpace=wrap;html=1;" parent="1" vertex="1">
          <mxGeometry x="840" y="80" width="200" height="60" as="geometry" />
        </mxCell>
        <mxCell id="Cwk6Fm1p2NDWb4YnVhiN-2" value="03 - rescisão pelo contratante" style="ellipse;whiteSpace=wrap;html=1;" parent="1" vertex="1">
          <mxGeometry x="840" y="150" width="200" height="60" as="geometry" />
        </mxCell>
        <mxCell id="Cwk6Fm1p2NDWb4YnVhiN-3" value="" style="endArrow=classic;html=1;rounded=0;entryX=0;entryY=0.5;entryDx=0;entryDy=0;exitX=1;exitY=0.5;exitDx=0;exitDy=0;" parent="1" source="klpjqXtWmZ-8evumb9kz-18" target="klpjqXtWmZ-8evumb9kz-19" edge="1">
          <mxGeometry width="50" height="50" relative="1" as="geometry">
            <mxPoint x="790" y="90" as="sourcePoint" />
            <mxPoint x="970" y="250" as="targetPoint" />
          </mxGeometry>
        </mxCell>
        <mxCell id="Cwk6Fm1p2NDWb4YnVhiN-4" value="" style="endArrow=classic;html=1;rounded=0;entryX=0;entryY=0.5;entryDx=0;entryDy=0;exitX=1;exitY=0.5;exitDx=0;exitDy=0;" parent="1" source="klpjqXtWmZ-8evumb9kz-18" target="Cwk6Fm1p2NDWb4YnVhiN-1" edge="1">
          <mxGeometry width="50" height="50" relative="1" as="geometry">
            <mxPoint x="797" y="94" as="sourcePoint" />
            <mxPoint x="850" y="50" as="targetPoint" />
          </mxGeometry>
        </mxCell>
        <mxCell id="Cwk6Fm1p2NDWb4YnVhiN-5" value="" style="endArrow=classic;html=1;rounded=0;entryX=-0.01;entryY=0.383;entryDx=0;entryDy=0;entryPerimeter=0;exitX=1;exitY=0.5;exitDx=0;exitDy=0;" parent="1" source="klpjqXtWmZ-8evumb9kz-18" target="Cwk6Fm1p2NDWb4YnVhiN-2" edge="1">
          <mxGeometry width="50" height="50" relative="1" as="geometry">
            <mxPoint x="790" y="90" as="sourcePoint" />
            <mxPoint x="850" y="120" as="targetPoint" />
          </mxGeometry>
        </mxCell>
        <mxCell id="Cwk6Fm1p2NDWb4YnVhiN-6" value="08 - cadastrar nível de serviço" style="ellipse;whiteSpace=wrap;html=1;" parent="1" vertex="1">
          <mxGeometry x="290" y="1440" width="200" height="60" as="geometry" />
        </mxCell>
        <mxCell id="Cwk6Fm1p2NDWb4YnVhiN-7" value="" style="endArrow=classic;html=1;rounded=0;entryX=0;entryY=0.5;entryDx=0;entryDy=0;exitX=1;exitY=0.5;exitDx=0;exitDy=0;" parent="1" source="klpjqXtWmZ-8evumb9kz-1" target="Cwk6Fm1p2NDWb4YnVhiN-6" edge="1">
          <mxGeometry width="50" height="50" relative="1" as="geometry">
            <mxPoint x="220" y="1170" as="sourcePoint" />
            <mxPoint x="300" y="1410" as="targetPoint" />
          </mxGeometry>
        </mxCell>
        <mxCell id="kjdss6qvVaG7TTnkYHRm-1" value="UCS13 - autenticar CPF e CNPJ (API)" style="shape=hexagon;perimeter=hexagonPerimeter2;whiteSpace=wrap;html=1;fixedSize=1;" parent="1" vertex="1">
          <mxGeometry x="600" y="350" width="120" height="80" as="geometry" />
        </mxCell>
        <mxCell id="QNeAiwtMPYAzNaj2sFMt-1" value="02 - resposta &quot;False&quot;" style="ellipse;whiteSpace=wrap;html=1;" parent="1" vertex="1">
          <mxGeometry x="840" y="340" width="200" height="60" as="geometry" />
        </mxCell>
        <mxCell id="QNeAiwtMPYAzNaj2sFMt-2" value="01 - consulta CPF" style="ellipse;whiteSpace=wrap;html=1;" parent="1" vertex="1">
          <mxGeometry x="840" y="260" width="200" height="60" as="geometry" />
        </mxCell>
        <mxCell id="QNeAiwtMPYAzNaj2sFMt-3" value="03 - código de resposta na faixa 400" style="ellipse;whiteSpace=wrap;html=1;" parent="1" vertex="1">
          <mxGeometry x="840" y="410" width="200" height="60" as="geometry" />
        </mxCell>
        <mxCell id="QNeAiwtMPYAzNaj2sFMt-4" value="04 - código de resposta na faixa 500" style="ellipse;whiteSpace=wrap;html=1;" parent="1" vertex="1">
          <mxGeometry x="850" y="490" width="200" height="60" as="geometry" />
        </mxCell>
        <mxCell id="QNeAiwtMPYAzNaj2sFMt-5" value="" style="endArrow=classic;html=1;rounded=0;entryX=0;entryY=0.5;entryDx=0;entryDy=0;exitX=1;exitY=0.5;exitDx=0;exitDy=0;" parent="1" source="kjdss6qvVaG7TTnkYHRm-1" target="QNeAiwtMPYAzNaj2sFMt-2" edge="1">
          <mxGeometry width="50" height="50" relative="1" as="geometry">
            <mxPoint x="790" y="450" as="sourcePoint" />
            <mxPoint x="840" y="526" as="targetPoint" />
          </mxGeometry>
        </mxCell>
        <mxCell id="QNeAiwtMPYAzNaj2sFMt-6" value="" style="endArrow=classic;html=1;rounded=0;entryX=0;entryY=0.5;entryDx=0;entryDy=0;exitX=1;exitY=0.5;exitDx=0;exitDy=0;" parent="1" source="kjdss6qvVaG7TTnkYHRm-1" target="QNeAiwtMPYAzNaj2sFMt-1" edge="1">
          <mxGeometry width="50" height="50" relative="1" as="geometry">
            <mxPoint x="800" y="360" as="sourcePoint" />
            <mxPoint x="850" y="300" as="targetPoint" />
          </mxGeometry>
        </mxCell>
        <mxCell id="QNeAiwtMPYAzNaj2sFMt-7" value="" style="endArrow=classic;html=1;rounded=0;entryX=0;entryY=0.5;entryDx=0;entryDy=0;exitX=1;exitY=0.5;exitDx=0;exitDy=0;" parent="1" source="kjdss6qvVaG7TTnkYHRm-1" target="QNeAiwtMPYAzNaj2sFMt-3" edge="1">
          <mxGeometry width="50" height="50" relative="1" as="geometry">
            <mxPoint x="800" y="360" as="sourcePoint" />
            <mxPoint x="850" y="380" as="targetPoint" />
          </mxGeometry>
        </mxCell>
        <mxCell id="QNeAiwtMPYAzNaj2sFMt-8" value="" style="endArrow=classic;html=1;rounded=0;entryX=0;entryY=0.5;entryDx=0;entryDy=0;exitX=1;exitY=0.5;exitDx=0;exitDy=0;" parent="1" source="kjdss6qvVaG7TTnkYHRm-1" target="QNeAiwtMPYAzNaj2sFMt-4" edge="1">
          <mxGeometry width="50" height="50" relative="1" as="geometry">
            <mxPoint x="790" y="430" as="sourcePoint" />
            <mxPoint x="840" y="520" as="targetPoint" />
          </mxGeometry>
        </mxCell>
        <mxCell id="8Y97vEkk2aVtizGYK0-s-1" value="UCS14 - notificar término de contrato" style="shape=hexagon;perimeter=hexagonPerimeter2;whiteSpace=wrap;html=1;fixedSize=1;" parent="1" vertex="1">
          <mxGeometry x="600" y="670" width="120" height="80" as="geometry" />
        </mxCell>
        <mxCell id="8Y97vEkk2aVtizGYK0-s-2" value="01 - e-mail inválido" style="ellipse;whiteSpace=wrap;html=1;" parent="1" vertex="1">
          <mxGeometry x="830" y="590" width="200" height="60" as="geometry" />
        </mxCell>
        <mxCell id="8Y97vEkk2aVtizGYK0-s-3" value="02 - sem contratos para gerar aviso" style="ellipse;whiteSpace=wrap;html=1;" parent="1" vertex="1">
          <mxGeometry x="830" y="660" width="200" height="60" as="geometry" />
        </mxCell>
        <mxCell id="8Y97vEkk2aVtizGYK0-s-4" value="03 - sem acesso ao servidor de e-mail" style="ellipse;whiteSpace=wrap;html=1;" parent="1" vertex="1">
          <mxGeometry x="830" y="730" width="200" height="60" as="geometry" />
        </mxCell>
        <mxCell id="8Y97vEkk2aVtizGYK0-s-6" value="" style="endArrow=classic;html=1;rounded=0;entryX=0;entryY=0.5;entryDx=0;entryDy=0;exitX=1;exitY=0.5;exitDx=0;exitDy=0;" parent="1" source="8Y97vEkk2aVtizGYK0-s-1" target="8Y97vEkk2aVtizGYK0-s-2" edge="1">
          <mxGeometry width="50" height="50" relative="1" as="geometry">
            <mxPoint x="800" y="400" as="sourcePoint" />
            <mxPoint x="860" y="530" as="targetPoint" />
          </mxGeometry>
        </mxCell>
        <mxCell id="8Y97vEkk2aVtizGYK0-s-7" value="" style="endArrow=classic;html=1;rounded=0;entryX=0;entryY=0.5;entryDx=0;entryDy=0;exitX=1;exitY=0.5;exitDx=0;exitDy=0;" parent="1" source="8Y97vEkk2aVtizGYK0-s-1" target="8Y97vEkk2aVtizGYK0-s-3" edge="1">
          <mxGeometry width="50" height="50" relative="1" as="geometry">
            <mxPoint x="800" y="690" as="sourcePoint" />
            <mxPoint x="840" y="630" as="targetPoint" />
          </mxGeometry>
        </mxCell>
        <mxCell id="8Y97vEkk2aVtizGYK0-s-8" value="" style="endArrow=classic;html=1;rounded=0;entryX=0;entryY=0.5;entryDx=0;entryDy=0;exitX=1;exitY=0.5;exitDx=0;exitDy=0;" parent="1" source="8Y97vEkk2aVtizGYK0-s-1" target="8Y97vEkk2aVtizGYK0-s-4" edge="1">
          <mxGeometry width="50" height="50" relative="1" as="geometry">
            <mxPoint x="800" y="690" as="sourcePoint" />
            <mxPoint x="840" y="700" as="targetPoint" />
          </mxGeometry>
        </mxCell>
        <mxCell id="k42VsRJL1ShWlM9Yqh_i-1" value="UCS15 - Gerir relatórios" style="shape=hexagon;perimeter=hexagonPerimeter2;whiteSpace=wrap;html=1;fixedSize=1;" parent="1" vertex="1">
          <mxGeometry x="610" y="1120" width="120" height="80" as="geometry" />
        </mxCell>
        <mxCell id="k42VsRJL1ShWlM9Yqh_i-2" value="01 - gerar relatório de boletos em aberto" style="ellipse;whiteSpace=wrap;html=1;" parent="1" vertex="1">
          <mxGeometry x="830" y="860" width="200" height="60" as="geometry" />
        </mxCell>
        <mxCell id="k42VsRJL1ShWlM9Yqh_i-3" value="02 - Gerar relatório de contratos vigentes" style="ellipse;whiteSpace=wrap;html=1;" parent="1" vertex="1">
          <mxGeometry x="830" y="930" width="200" height="60" as="geometry" />
        </mxCell>
        <mxCell id="k42VsRJL1ShWlM9Yqh_i-4" value="03 - gerar relatórios de contratos vencidos" style="ellipse;whiteSpace=wrap;html=1;" parent="1" vertex="1">
          <mxGeometry x="830" y="1000" width="200" height="60" as="geometry" />
        </mxCell>
        <mxCell id="k42VsRJL1ShWlM9Yqh_i-5" value="04 - gerar relatório de despesas por competência" style="ellipse;whiteSpace=wrap;html=1;" parent="1" vertex="1">
          <mxGeometry x="830" y="1070" width="200" height="60" as="geometry" />
        </mxCell>
        <mxCell id="k42VsRJL1ShWlM9Yqh_i-6" value="05 - gerar relatório de receitas por competência" style="ellipse;whiteSpace=wrap;html=1;" parent="1" vertex="1">
          <mxGeometry x="830" y="1140" width="200" height="60" as="geometry" />
        </mxCell>
        <mxCell id="k42VsRJL1ShWlM9Yqh_i-7" value="06 - gerar relatório de fornecedores ativos" style="ellipse;whiteSpace=wrap;html=1;" parent="1" vertex="1">
          <mxGeometry x="830" y="1210" width="200" height="60" as="geometry" />
        </mxCell>
        <mxCell id="k42VsRJL1ShWlM9Yqh_i-8" value="07 - salvar relatório em pdf" style="ellipse;whiteSpace=wrap;html=1;" parent="1" vertex="1">
          <mxGeometry x="830" y="1280" width="200" height="60" as="geometry" />
        </mxCell>
        <mxCell id="k42VsRJL1ShWlM9Yqh_i-9" value="09 - sem informações para o relatório" style="ellipse;whiteSpace=wrap;html=1;" parent="1" vertex="1">
          <mxGeometry x="830" y="1420" width="200" height="60" as="geometry" />
        </mxCell>
        <mxCell id="k42VsRJL1ShWlM9Yqh_i-11" value="" style="endArrow=classic;html=1;rounded=0;entryX=0;entryY=0.5;entryDx=0;entryDy=0;exitX=1;exitY=0.5;exitDx=0;exitDy=0;" parent="1" source="k42VsRJL1ShWlM9Yqh_i-1" target="k42VsRJL1ShWlM9Yqh_i-2" edge="1">
          <mxGeometry width="50" height="50" relative="1" as="geometry">
            <mxPoint x="800" y="1020" as="sourcePoint" />
            <mxPoint x="840" y="1070" as="targetPoint" />
          </mxGeometry>
        </mxCell>
        <mxCell id="k42VsRJL1ShWlM9Yqh_i-12" value="" style="endArrow=classic;html=1;rounded=0;entryX=0;entryY=0.5;entryDx=0;entryDy=0;exitX=1;exitY=0.5;exitDx=0;exitDy=0;" parent="1" source="k42VsRJL1ShWlM9Yqh_i-1" target="k42VsRJL1ShWlM9Yqh_i-3" edge="1">
          <mxGeometry width="50" height="50" relative="1" as="geometry">
            <mxPoint x="740" y="1190" as="sourcePoint" />
            <mxPoint x="840" y="900" as="targetPoint" />
          </mxGeometry>
        </mxCell>
        <mxCell id="k42VsRJL1ShWlM9Yqh_i-13" value="" style="endArrow=classic;html=1;rounded=0;entryX=0;entryY=0.5;entryDx=0;entryDy=0;exitX=1;exitY=0.5;exitDx=0;exitDy=0;" parent="1" source="k42VsRJL1ShWlM9Yqh_i-1" target="k42VsRJL1ShWlM9Yqh_i-4" edge="1">
          <mxGeometry width="50" height="50" relative="1" as="geometry">
            <mxPoint x="740" y="1170" as="sourcePoint" />
            <mxPoint x="840" y="970" as="targetPoint" />
          </mxGeometry>
        </mxCell>
        <mxCell id="paU6HqHycpOkiBQbGd3a-1" value="" style="endArrow=classic;html=1;rounded=0;entryX=0;entryY=0.5;entryDx=0;entryDy=0;exitX=1;exitY=0.5;exitDx=0;exitDy=0;" parent="1" source="k42VsRJL1ShWlM9Yqh_i-1" target="k42VsRJL1ShWlM9Yqh_i-5" edge="1">
          <mxGeometry width="50" height="50" relative="1" as="geometry">
            <mxPoint x="740" y="1170" as="sourcePoint" />
            <mxPoint x="840" y="1040" as="targetPoint" />
          </mxGeometry>
        </mxCell>
        <mxCell id="paU6HqHycpOkiBQbGd3a-2" value="" style="endArrow=classic;html=1;rounded=0;entryX=0;entryY=0.5;entryDx=0;entryDy=0;exitX=1;exitY=0.5;exitDx=0;exitDy=0;" parent="1" source="k42VsRJL1ShWlM9Yqh_i-1" target="k42VsRJL1ShWlM9Yqh_i-6" edge="1">
          <mxGeometry width="50" height="50" relative="1" as="geometry">
            <mxPoint x="740" y="1170" as="sourcePoint" />
            <mxPoint x="840" y="1110" as="targetPoint" />
          </mxGeometry>
        </mxCell>
        <mxCell id="paU6HqHycpOkiBQbGd3a-3" value="" style="endArrow=classic;html=1;rounded=0;entryX=0;entryY=0.5;entryDx=0;entryDy=0;exitX=1;exitY=0.5;exitDx=0;exitDy=0;" parent="1" source="k42VsRJL1ShWlM9Yqh_i-1" target="k42VsRJL1ShWlM9Yqh_i-7" edge="1">
          <mxGeometry width="50" height="50" relative="1" as="geometry">
            <mxPoint x="740" y="1170" as="sourcePoint" />
            <mxPoint x="840" y="1180" as="targetPoint" />
          </mxGeometry>
        </mxCell>
        <mxCell id="paU6HqHycpOkiBQbGd3a-4" value="" style="endArrow=classic;html=1;rounded=0;entryX=0;entryY=0.5;entryDx=0;entryDy=0;exitX=1;exitY=0.5;exitDx=0;exitDy=0;" parent="1" source="k42VsRJL1ShWlM9Yqh_i-1" target="k42VsRJL1ShWlM9Yqh_i-8" edge="1">
          <mxGeometry width="50" height="50" relative="1" as="geometry">
            <mxPoint x="720" y="1230" as="sourcePoint" />
            <mxPoint x="820" y="1310" as="targetPoint" />
          </mxGeometry>
        </mxCell>
        <mxCell id="paU6HqHycpOkiBQbGd3a-5" value="" style="endArrow=classic;html=1;rounded=0;entryX=0;entryY=0.5;entryDx=0;entryDy=0;exitX=1;exitY=0.5;exitDx=0;exitDy=0;" parent="1" source="k42VsRJL1ShWlM9Yqh_i-1" target="k42VsRJL1ShWlM9Yqh_i-9" edge="1">
          <mxGeometry width="50" height="50" relative="1" as="geometry">
            <mxPoint x="720" y="1240" as="sourcePoint" />
            <mxPoint x="820" y="1390" as="targetPoint" />
          </mxGeometry>
        </mxCell>
        <mxCell id="X3dhn9QJ53rGcp-_HMnU-1" value="09 - contrato vencido" style="ellipse;whiteSpace=wrap;html=1;" parent="1" vertex="1">
          <mxGeometry x="290" y="1510" width="200" height="60" as="geometry" />
        </mxCell>
        <mxCell id="X3dhn9QJ53rGcp-_HMnU-2" value="" style="endArrow=classic;html=1;rounded=0;entryX=0;entryY=0.5;entryDx=0;entryDy=0;exitX=1;exitY=0.5;exitDx=0;exitDy=0;" parent="1" source="klpjqXtWmZ-8evumb9kz-1" target="X3dhn9QJ53rGcp-_HMnU-1" edge="1">
          <mxGeometry width="50" height="50" relative="1" as="geometry">
            <mxPoint x="210" y="1180" as="sourcePoint" />
            <mxPoint x="300" y="1480" as="targetPoint" />
          </mxGeometry>
        </mxCell>
        <mxCell id="HYDV06ZZ-ns0P5XaBG0h-2" value="08 - salvar relatório em planilha" style="ellipse;whiteSpace=wrap;html=1;" parent="1" vertex="1">
          <mxGeometry x="830" y="1350" width="200" height="60" as="geometry" />
        </mxCell>
        <mxCell id="HYDV06ZZ-ns0P5XaBG0h-3" value="" style="endArrow=classic;html=1;rounded=0;entryX=0;entryY=0.5;entryDx=0;entryDy=0;exitX=1;exitY=0.5;exitDx=0;exitDy=0;" parent="1" source="k42VsRJL1ShWlM9Yqh_i-1" target="HYDV06ZZ-ns0P5XaBG0h-2" edge="1">
          <mxGeometry width="50" height="50" relative="1" as="geometry">
            <mxPoint x="740" y="1170" as="sourcePoint" />
            <mxPoint x="840" y="1320" as="targetPoint" />
          </mxGeometry>
        </mxCell>
        <mxCell id="jvel2zJXbHHZziRdSldR-1" value="10 - Cadastro de contratos sem data de vigência final" style="ellipse;whiteSpace=wrap;html=1;" vertex="1" parent="1">
          <mxGeometry x="280" y="1580" width="200" height="60" as="geometry" />
        </mxCell>
        <mxCell id="jvel2zJXbHHZziRdSldR-2" value="" style="endArrow=classic;html=1;rounded=0;entryX=0;entryY=0.5;entryDx=0;entryDy=0;exitX=1;exitY=0.5;exitDx=0;exitDy=0;" edge="1" parent="1" source="klpjqXtWmZ-8evumb9kz-1" target="jvel2zJXbHHZziRdSldR-1">
          <mxGeometry width="50" height="50" relative="1" as="geometry">
            <mxPoint x="180" y="1340" as="sourcePoint" />
            <mxPoint x="270" y="1620" as="targetPoint" />
          </mxGeometry>
        </mxCell>
      </root>
    </mxGraphModel>
  </diagram>
  <diagram id="93g3ICuBWFyGKDhEZIL2" name="fluxo alternativo 16">
    <mxGraphModel dx="1674" dy="844" grid="1" gridSize="10" guides="1" tooltips="1" connect="1" arrows="1" fold="1" page="1" pageScale="1" pageWidth="1169" pageHeight="1654" math="0" shadow="0">
      <root>
        <mxCell id="0" />
        <mxCell id="1" parent="0" />
        <mxCell id="chOigUDfb3sy1vtV7iiR-1" value="UCS16 - excluir registros" style="shape=hexagon;perimeter=hexagonPerimeter2;whiteSpace=wrap;html=1;fixedSize=1;" parent="1" vertex="1">
          <mxGeometry x="80" y="470" width="120" height="80" as="geometry" />
        </mxCell>
        <mxCell id="0YMXraO1GnSPzDPTpkQg-1" value="01 - excluir contratos" style="ellipse;whiteSpace=wrap;html=1;" parent="1" vertex="1">
          <mxGeometry x="310" y="280" width="200" height="60" as="geometry" />
        </mxCell>
        <mxCell id="0YMXraO1GnSPzDPTpkQg-2" value="" style="endArrow=classic;html=1;rounded=0;exitX=1;exitY=0.5;exitDx=0;exitDy=0;entryX=0;entryY=0.5;entryDx=0;entryDy=0;" parent="1" source="chOigUDfb3sy1vtV7iiR-1" target="0YMXraO1GnSPzDPTpkQg-1" edge="1">
          <mxGeometry width="50" height="50" relative="1" as="geometry">
            <mxPoint x="190" y="640" as="sourcePoint" />
            <mxPoint x="240" y="590" as="targetPoint" />
          </mxGeometry>
        </mxCell>
        <mxCell id="0YMXraO1GnSPzDPTpkQg-3" value="02 - excluir conta a pagar" style="ellipse;whiteSpace=wrap;html=1;" parent="1" vertex="1">
          <mxGeometry x="310" y="360" width="200" height="60" as="geometry" />
        </mxCell>
        <mxCell id="0YMXraO1GnSPzDPTpkQg-4" value="03 - excluir contas e receber" style="ellipse;whiteSpace=wrap;html=1;" parent="1" vertex="1">
          <mxGeometry x="310" y="440" width="200" height="60" as="geometry" />
        </mxCell>
        <mxCell id="0YMXraO1GnSPzDPTpkQg-5" value="04 - excluir apartamento" style="ellipse;whiteSpace=wrap;html=1;" parent="1" vertex="1">
          <mxGeometry x="310" y="520" width="200" height="60" as="geometry" />
        </mxCell>
        <mxCell id="0YMXraO1GnSPzDPTpkQg-6" value="05 - excluir usuário" style="ellipse;whiteSpace=wrap;html=1;" parent="1" vertex="1">
          <mxGeometry x="300" y="600" width="200" height="60" as="geometry" />
        </mxCell>
        <mxCell id="z585C3iixTIY2aSBGyeA-1" value="" style="endArrow=classic;html=1;rounded=0;exitX=1;exitY=0.5;exitDx=0;exitDy=0;entryX=0;entryY=0.5;entryDx=0;entryDy=0;" parent="1" source="chOigUDfb3sy1vtV7iiR-1" target="0YMXraO1GnSPzDPTpkQg-3" edge="1">
          <mxGeometry width="50" height="50" relative="1" as="geometry">
            <mxPoint x="210" y="520" as="sourcePoint" />
            <mxPoint x="320" y="320" as="targetPoint" />
          </mxGeometry>
        </mxCell>
        <mxCell id="z585C3iixTIY2aSBGyeA-2" value="" style="endArrow=classic;html=1;rounded=0;exitX=1;exitY=0.5;exitDx=0;exitDy=0;entryX=0;entryY=0.5;entryDx=0;entryDy=0;" parent="1" source="chOigUDfb3sy1vtV7iiR-1" target="0YMXraO1GnSPzDPTpkQg-4" edge="1">
          <mxGeometry width="50" height="50" relative="1" as="geometry">
            <mxPoint x="210" y="520" as="sourcePoint" />
            <mxPoint x="320" y="400" as="targetPoint" />
          </mxGeometry>
        </mxCell>
        <mxCell id="z585C3iixTIY2aSBGyeA-3" value="" style="endArrow=classic;html=1;rounded=0;exitX=1;exitY=0.5;exitDx=0;exitDy=0;entryX=0;entryY=0.5;entryDx=0;entryDy=0;" parent="1" source="chOigUDfb3sy1vtV7iiR-1" target="0YMXraO1GnSPzDPTpkQg-5" edge="1">
          <mxGeometry width="50" height="50" relative="1" as="geometry">
            <mxPoint x="210" y="520" as="sourcePoint" />
            <mxPoint x="320" y="480" as="targetPoint" />
          </mxGeometry>
        </mxCell>
        <mxCell id="z585C3iixTIY2aSBGyeA-4" value="" style="endArrow=classic;html=1;rounded=0;exitX=1;exitY=0.5;exitDx=0;exitDy=0;entryX=0;entryY=0.5;entryDx=0;entryDy=0;" parent="1" source="chOigUDfb3sy1vtV7iiR-1" target="0YMXraO1GnSPzDPTpkQg-6" edge="1">
          <mxGeometry width="50" height="50" relative="1" as="geometry">
            <mxPoint x="210" y="520" as="sourcePoint" />
            <mxPoint x="320" y="560" as="targetPoint" />
          </mxGeometry>
        </mxCell>
      </root>
    </mxGraphModel>
  </diagram>
</mxfile>
